<?xml version="1.0" encoding="UTF-8"?>
<!DOCTYPE svg PUBLIC "-//W3C//DTD SVG 1.1//EN" "http://www.w3.org/Graphics/SVG/1.1/DTD/svg11.dtd">
<!-- Creator: CorelDRAW 2018 (64 Bit) -->
<svg xmlns="http://www.w3.org/2000/svg" xml:space="preserve" width="37px" height="20px" version="1.1" shape-rendering="geometricPrecision" text-rendering="geometricPrecision" image-rendering="optimizeQuality" fill-rule="evenodd" clip-rule="evenodd"
viewBox="0 0 37 20"
 xmlns:xlink="http://www.w3.org/1999/xlink">
 <g id="Capa_x0020_1">
  <metadata id="CorelCorpID_0Corel-Layer"/>
  <path fill="black" d="M15.84 18.66c-1.01,0.66 -2.92,1.17 -4.14,1.17l-9.03 0.01c-1.54,0 -2.74,-1.2 -2.73,-2.73l0 -14.02c-0.04,-1.52 1.17,-2.8 2.73,-2.8l6.44 0c2.98,0 6.79,0.46 7.97,3.71 0.8,2.22 0,4.1 -1.68,5.57 0.94,0.22 2.03,1.35 2.51,2.17l4.98 -9.58c0.73,-1.57 2.01,-2.12 3.51,-2.16 2.07,-0.06 2.98,1.64 3.81,3.21 2.17,4.12 4.29,8.29 6.44,12.42 1.06,2.02 0.03,4.37 -2.33,4.37 -2.27,0 -2.13,-1.73 -3.1,-2.31 -0.5,-0.3 -1.64,-0.25 -2.36,-0.25l-5.17 0c-0.75,0 -1.86,-0.05 -2.35,0.25 -0.97,0.61 -0.84,2.31 -3.12,2.31 -1,0 -1.89,-0.54 -2.38,-1.34z"/>
 </g>
</svg>
