<?xml version="1.0" encoding="UTF-8"?>
<!DOCTYPE svg PUBLIC "-//W3C//DTD SVG 1.1//EN" "http://www.w3.org/Graphics/SVG/1.1/DTD/svg11.dtd">
<!-- Creator: CorelDRAW 2018 (64 Bit) -->
<svg xmlns="http://www.w3.org/2000/svg" xml:space="preserve" width="37px" height="20px" version="1.1" shape-rendering="geometricPrecision" text-rendering="geometricPrecision" image-rendering="optimizeQuality" fill-rule="evenodd" clip-rule="evenodd"
viewBox="0 0 37 20"
 xmlns:xlink="http://www.w3.org/1999/xlink">
 <g id="Capa_x0020_1">
  <metadata id="CorelCorpID_0Corel-Layer"/>
  <path fill="white" d="M15.85 18.63c-1,0.66 -2.9,1.16 -4.12,1.16l-9 0.01c-1.54,0 -2.73,-1.19 -2.72,-2.72l0 -13.97c-0.04,-1.51 1.17,-2.79 2.72,-2.79l6.42 0c2.97,0 6.76,0.46 7.94,3.7 0.8,2.21 0,4.08 -1.67,5.55 0.93,0.22 2.02,1.34 2.5,2.16l4.96 -9.55c0.73,-1.56 2,-2.11 3.5,-2.15 2.06,-0.06 2.97,1.64 3.8,3.2 2.16,4.11 4.27,8.26 6.41,12.38 1.06,2.01 0.03,4.35 -2.32,4.35 -2.26,0 -2.12,-1.72 -3.09,-2.3 -0.5,-0.3 -1.63,-0.25 -2.35,-0.25l-5.15 0c-0.75,0 -1.86,-0.05 -2.34,0.25 -0.97,0.61 -0.84,2.3 -3.11,2.3 -1,0 -1.89,-0.54 -2.38,-1.33l0 0z"/>
 </g>
</svg>
