<?xml version="1.0" encoding="UTF-8"?>
<!DOCTYPE svg PUBLIC "-//W3C//DTD SVG 1.1//EN" "http://www.w3.org/Graphics/SVG/1.1/DTD/svg11.dtd">
<!-- Creator: CorelDRAW 2018 (64 Bit) -->
<svg xmlns="http://www.w3.org/2000/svg" xml:space="preserve" width="16px" height="20px" version="1.1" shape-rendering="geometricPrecision" text-rendering="geometricPrecision" image-rendering="optimizeQuality" fill-rule="evenodd" clip-rule="evenodd"
viewBox="0 0 16 20"
 xmlns:xlink="http://www.w3.org/1999/xlink">
 <g id="Capa_x0020_1">
  <metadata id="CorelCorpID_0Corel-Layer"/>
  <g id="_2300737961344">
   <path fill="white" fill-rule="nonzero" d="M0.09 17.21c0,-0.18 0.15,-0.33 0.34,-0.33 0.18,0 0.33,0.15 0.33,0.33l0 2.43c0,0.19 -0.15,0.33 -0.33,0.33 -0.19,0 -0.34,-0.14 -0.34,-0.33l0 -2.43z"/>
   <path fill="white" fill-rule="nonzero" d="M2.49 19.34c0.55,0 0.92,-0.37 0.92,-0.91l0 0c0,-0.54 -0.37,-0.92 -0.92,-0.92l-0.51 0 0 1.83 0.51 0zm-1.18 -2.1c0,-0.19 0.14,-0.34 0.33,-0.34l0.85 0c0.96,0 1.62,0.66 1.62,1.52l0 0.01c0,0.85 -0.66,1.52 -1.62,1.52l-0.85 0c-0.19,0 -0.33,-0.15 -0.33,-0.34l0 -2.37z"/>
   <path fill="white" fill-rule="nonzero" d="M4.49 19.61l0 -2.37c0,-0.19 0.15,-0.34 0.34,-0.34l1.68 0c0.17,0 0.3,0.14 0.3,0.3 0,0.17 -0.13,0.3 -0.3,0.3l-1.35 0 0 0.62 1.16 0c0.16,0 0.3,0.13 0.3,0.3 0,0.16 -0.14,0.29 -0.3,0.29l-1.16 0 0 0.64 1.37 0c0.17,0 0.3,0.14 0.3,0.3 0,0.17 -0.13,0.3 -0.3,0.3l-1.7 0c-0.19,0 -0.34,-0.15 -0.34,-0.34z"/>
   <path fill="white" fill-rule="nonzero" d="M7.05 18.43l0 0c0,-0.87 0.65,-1.58 1.59,-1.58 0.46,0 0.76,0.12 1.02,0.31 0.07,0.05 0.13,0.15 0.13,0.27 0,0.18 -0.15,0.32 -0.33,0.32 -0.09,0 -0.15,-0.03 -0.2,-0.06 -0.19,-0.14 -0.39,-0.22 -0.62,-0.22 -0.52,0 -0.89,0.42 -0.89,0.95l0 0.01c0,0.52 0.36,0.95 0.89,0.95 0.28,0 0.46,-0.08 0.66,-0.24 0.05,-0.04 0.12,-0.07 0.2,-0.07 0.17,0 0.31,0.14 0.31,0.31 0,0.1 -0.05,0.18 -0.11,0.24 -0.28,0.24 -0.6,0.38 -1.09,0.38 -0.89,0 -1.56,-0.69 -1.56,-1.57z"/>
   <path fill="white" fill-rule="nonzero" d="M11.63 19.36c0.29,0 0.47,-0.1 0.47,-0.33l0 -0.01c0,-0.2 -0.15,-0.33 -0.49,-0.33l-0.78 0 0 0.67 0.8 0zm-0.18 -1.23c0.29,0 0.48,-0.09 0.48,-0.32l0 -0.01c0,-0.2 -0.16,-0.31 -0.44,-0.31l-0.66 0 0 0.64 0.62 0zm-1.27 -0.89c0,-0.19 0.15,-0.34 0.33,-0.34l1.08 0c0.35,0 0.62,0.1 0.8,0.27 0.14,0.14 0.21,0.31 0.21,0.52l0 0.01c0,0.34 -0.18,0.53 -0.4,0.66 0.35,0.13 0.57,0.34 0.57,0.74l0 0.01c0,0.56 -0.46,0.84 -1.14,0.84l-1.12 0c-0.18,0 -0.33,-0.15 -0.33,-0.34l0 -2.37z"/>
   <path fill="white" fill-rule="nonzero" d="M14.82 18.67l-0.43 -1 -0.42 1 0.85 0zm-1.89 0.85l1.06 -2.4c0.08,-0.16 0.21,-0.26 0.4,-0.26l0.03 0c0.19,0 0.32,0.1 0.39,0.26l1.06 2.4c0.02,0.04 0.04,0.09 0.04,0.13 0,0.18 -0.14,0.32 -0.32,0.32 -0.16,0 -0.26,-0.09 -0.32,-0.23l-0.21 -0.48 -1.34 0 -0.21 0.51c-0.06,0.13 -0.17,0.2 -0.31,0.2 -0.17,0 -0.31,-0.13 -0.31,-0.31 0,-0.05 0.02,-0.1 0.04,-0.14z"/>
   <path fill="white" fill-rule="nonzero" d="M8.94 2.53l-0.01 -0.33c0,-0.06 -0.02,-0.12 -0.05,-0.18l-0.58 -0.85c-0.07,-0.09 -0.17,-0.13 -0.28,-0.14 -0.01,0 -0.01,0.01 -0.02,0.01 -0.01,0 -0.01,-0.01 -0.02,-0.01 -0.11,0.01 -0.21,0.05 -0.28,0.14l-0.58 0.85c-0.03,0.06 -0.05,0.12 -0.05,0.18l-0.01 0.33 -0.05 4.53c0,0.09 0.1,0.13 0.17,0.07l1.44 -1.4c0.09,-0.09 0.19,-0.16 0.29,-0.21 0.04,-0.01 0.06,-0.05 0.06,-0.09l-0.03 -2.9z"/>
   <path fill="white" fill-rule="nonzero" d="M9.01 8.85c0,-0.08 -0.1,-0.13 -0.16,-0.07l-1.85 1.8c-0.02,0.02 -0.03,0.05 -0.03,0.07l-0.04 3.25c0,0.11 0.08,0.19 0.19,0.19l0.88 0 0.88 0c0.11,0 0.19,-0.08 0.19,-0.19l-0.06 -5.05z"/>
   <path fill="white" fill-rule="nonzero" d="M5.81 4.99l-1.54 0c-0.11,0 -0.19,0.09 -0.19,0.19l0 3.47c0,0.03 0.01,0.05 0.03,0.07l0.65 0.64c0.04,0.03 0.1,0.03 0.13,0l1.08 -1.05c0.02,-0.02 0.03,-0.05 0.03,-0.07l0 -3.06c0,-0.1 -0.09,-0.19 -0.19,-0.19z"/>
   <path fill="white" fill-rule="nonzero" d="M11.73 3.99l-1.54 0c-0.1,0 -0.19,0.09 -0.19,0.2l0 1.29c0,0.03 0.02,0.07 0.05,0.08 0.08,0.05 0.15,0.1 0.22,0.17l1.36 1.32c0.03,0.04 0.09,0.04 0.13,0l0.13 -0.13c0.02,-0.02 0.03,-0.04 0.03,-0.07l0 -2.66c0,-0.11 -0.08,-0.2 -0.19,-0.2z"/>
   <path fill="white" fill-rule="nonzero" d="M11.81 9.91c-0.34,0.04 -0.69,-0.07 -0.94,-0.32l-0.7 -0.69c-0.07,-0.05 -0.17,-0.01 -0.17,0.07l0 4.93c0,0.11 0.09,0.19 0.19,0.19l1.54 0c0.11,0 0.19,-0.08 0.19,-0.19l0 -3.89c0,-0.06 -0.05,-0.1 -0.11,-0.1z"/>
   <path fill="white" fill-rule="nonzero" d="M5.83 11.72l-0.18 0.17c-0.38,0.38 -0.98,0.44 -1.43,0.17 -0.06,-0.03 -0.14,0.01 -0.14,0.09l0 1.75c0,0.11 0.08,0.19 0.19,0.19l1.54 0c0.1,0 0.19,-0.08 0.19,-0.19l0 -2.11c0,-0.09 -0.1,-0.13 -0.17,-0.07z"/>
   <path fill="white" fill-rule="nonzero" d="M15.56 15.13l-0.35 0 0 0 -14.42 0 0 -2.27 0 -0.46 0 -0.25 0 -0.43 0.35 -0.34 0 0.01 0.38 -0.38 0 0 1.29 -1.25 1.67 1.63c0.19,0.19 0.5,0.19 0.69,0l4.2 -4.1c0.04,-0.03 0.1,-0.03 0.14,0l1.84 1.8c0.19,0.18 0.5,0.18 0.68,0l2.91 -2.83 0 0.99c0,0.25 0.21,0.46 0.48,0.46 0.26,0 0.48,-0.21 0.48,-0.46l0 -2.12c0,-0.01 0,-0.01 0,-0.02 0,-0.02 -0.01,-0.04 -0.01,-0.06 0,-0.01 0,-0.02 0,-0.03 -0.01,-0.02 -0.02,-0.05 -0.03,-0.07 0,0 0,0 0,0 0,-0.01 0,-0.01 -0.01,-0.02 0,-0.02 -0.02,-0.04 -0.03,-0.06 0,0 -0.01,-0.01 -0.01,-0.02 -0.02,-0.01 -0.03,-0.03 -0.04,-0.04 -0.01,-0.01 -0.01,-0.01 -0.02,-0.02 -0.02,-0.02 -0.04,-0.03 -0.06,-0.05 0,0 0,0 0,0 -0.03,-0.02 -0.05,-0.03 -0.08,-0.04 0,0 -0.01,-0.01 -0.02,-0.01 -0.02,-0.01 -0.04,-0.01 -0.06,-0.02 -0.01,0 -0.02,0 -0.02,0 -0.03,-0.01 -0.06,-0.01 -0.09,-0.01l-2.28 0c-0.27,0 -0.48,0.21 -0.48,0.47 0,0.26 0.21,0.47 0.48,0.47l1.12 0 -2.5 2.43c-0.04,0.03 -0.1,0.03 -0.13,0l-1.85 -1.8c-0.18,-0.18 -0.49,-0.18 -0.68,0l-4.21 4.1c-0.03,0.04 -0.09,0.04 -0.13,0l-1.61 -1.57c-0.19,-0.18 -0.49,-0.18 -0.68,0l-1.68 1.64 0 -8.32 0 -1.1 0 -0.64c0,-0.19 -0.16,-0.34 -0.35,-0.34 -0.19,0 -0.35,0.15 -0.35,0.34l0 15.13c0,0.19 0.16,0.34 0.35,0.34l14.77 0 0 0 0.35 0c0.19,0 0.35,-0.15 0.35,-0.33l0 -0.01c0,-0.19 -0.16,-0.34 -0.35,-0.34z"/>
  </g>
 </g>
</svg>
