<?xml version="1.0" encoding="UTF-8"?>
<!DOCTYPE svg PUBLIC "-//W3C//DTD SVG 1.1//EN" "http://www.w3.org/Graphics/SVG/1.1/DTD/svg11.dtd">
<!-- Creator: CorelDRAW 2018 (64 Bit) -->
<svg xmlns="http://www.w3.org/2000/svg" xml:space="preserve" width="52px" height="20px" version="1.1" shape-rendering="geometricPrecision" text-rendering="geometricPrecision" image-rendering="optimizeQuality" fill-rule="evenodd" clip-rule="evenodd"
viewBox="0 0 52 20"
 xmlns:xlink="http://www.w3.org/1999/xlink">
 <g id="Capa_x0020_1">
  <metadata id="CorelCorpID_0Corel-Layer"/>
  <path fill="#373435" d="M20.78 5.79l-3.9 3.15 -5.91 0 -2.34 -1.41 -2.56 2.33 -5.93 0 5.09 -4.63 5.89 0 2.48 1.59 1.22 -1.03 -0.9 0 0 -0.24 3.2 0 2.57 -2.14 -1.94 0 7.84 -3.41 1.39 3.41 -1.44 0 -2.56 2.14 1.02 0 0 0.24 -3.22 0 0 0zm18.13 12.73l0 0.88 -0.21 0 0 -0.88c0,-0.21 -0.08,-0.33 -0.31,-0.33 -0.31,0 -0.4,0.21 -0.4,0.5l0 0.71 -0.21 0 0 -1.35 0.17 0 0.03 0.19 0.01 0c0.09,-0.15 0.26,-0.22 0.43,-0.22 0.32,-0.01 0.49,0.17 0.49,0.5l0 0zm2.95 0l0 0.88 -0.21 0 0 -0.88c0,-0.21 -0.08,-0.33 -0.31,-0.33 -0.31,0 -0.4,0.21 -0.4,0.5l0 0.71 -0.21 0 0 -1.35 0.17 0 0.02 0.19 0.02 0c0.09,-0.15 0.26,-0.22 0.43,-0.22 0.33,-0.01 0.49,0.17 0.49,0.5l0 0zm-11.94 0l0 0.88 -0.21 0 0 -0.88c0,-0.21 -0.08,-0.33 -0.31,-0.33 -0.32,0 -0.4,0.21 -0.4,0.5l0 0.71 -0.21 0 0 -1.35 0.17 0 0.03 0.19 0.01 0c0.09,-0.15 0.26,-0.22 0.43,-0.22 0.32,-0.01 0.49,0.17 0.49,0.5l0 0zm15.8 0.51c0,0.31 -0.27,0.39 -0.53,0.39 -0.17,0 -0.28,-0.01 -0.43,-0.09l0 -0.18c0.16,0.06 0.25,0.1 0.43,0.1 0.15,0 0.34,-0.02 0.34,-0.21 0,-0.14 -0.24,-0.22 -0.34,-0.26 -0.2,-0.09 -0.42,-0.13 -0.42,-0.41 0,-0.28 0.26,-0.35 0.5,-0.35 0.13,0 0.31,0.03 0.42,0.09l-0.06 0.15c-0.14,-0.04 -0.23,-0.08 -0.38,-0.08 -0.1,0 -0.29,0.04 -0.29,0.17 0,0.17 0.23,0.24 0.35,0.28 0.21,0.07 0.41,0.15 0.41,0.4l0 0zm-1.27 -0.55l0 0.92 -0.15 0 -0.04 -0.2 0 0c-0.15,0.17 -0.26,0.22 -0.47,0.22 -0.26,0 -0.42,-0.13 -0.42,-0.4 0,-0.13 0.05,-0.23 0.16,-0.31 0.18,-0.13 0.5,-0.11 0.73,-0.13 0,-0.21 -0.02,-0.39 -0.3,-0.39 -0.12,0 -0.29,0.04 -0.38,0.09l-0.07 -0.15c0.14,-0.08 0.3,-0.11 0.46,-0.11 0.31,-0.01 0.48,0.13 0.48,0.46l0 0zm-0.21 0.25c-0.16,0 -0.45,0 -0.56,0.09 -0.06,0.05 -0.1,0.12 -0.1,0.21 0,0.17 0.1,0.22 0.26,0.22 0.25,0 0.4,-0.14 0.4,-0.4l0 -0.12 0 0zm-3.93 -0.25l0 0.92 -0.15 0 -0.04 -0.2 -0.01 0c-0.14,0.17 -0.25,0.22 -0.46,0.22 -0.26,0 -0.42,-0.13 -0.42,-0.4 0,-0.13 0.05,-0.23 0.16,-0.31 0.18,-0.13 0.5,-0.11 0.72,-0.13 0,-0.21 -0.02,-0.39 -0.29,-0.39 -0.11,0 -0.29,0.04 -0.38,0.09l-0.07 -0.15c0.14,-0.08 0.3,-0.11 0.46,-0.11 0.31,-0.01 0.48,0.13 0.48,0.46l0 0zm-0.21 0.25c-0.16,0 -0.45,0 -0.56,0.09 -0.06,0.05 -0.1,0.12 -0.1,0.21 0,0.17 0.11,0.22 0.26,0.22 0.26,0 0.4,-0.14 0.4,-0.4l0 -0.12 0 0 0 0zm-7.23 -0.25l0 0.92 -0.15 0 -0.04 -0.2 -0.01 0c-0.13,0.17 -0.25,0.22 -0.46,0.22 -0.26,0 -0.42,-0.13 -0.42,-0.4 0,-0.13 0.05,-0.23 0.16,-0.31 0.18,-0.13 0.5,-0.11 0.72,-0.13 0,-0.21 -0.01,-0.39 -0.29,-0.39 -0.11,0 -0.28,0.04 -0.38,0.09l-0.07 -0.15c0.14,-0.08 0.3,-0.11 0.46,-0.11 0.32,-0.01 0.48,0.13 0.48,0.46l0 0zm-0.21 0.25c-0.15,0 -0.44,0 -0.56,0.09 -0.06,0.05 -0.1,0.12 -0.1,0.21 0,0.17 0.11,0.22 0.26,0.22 0.26,0 0.4,-0.14 0.4,-0.4l0 -0.12 0 0 0 0zm-4.21 -0.1l0 0.13 -0.93 0c0,0.28 0.15,0.49 0.44,0.49 0.16,0 0.29,-0.04 0.43,-0.1l0 0.18c-0.15,0.07 -0.27,0.09 -0.44,0.09 -0.43,0 -0.64,-0.27 -0.64,-0.7 0,-0.37 0.17,-0.7 0.59,-0.7 0.36,-0.01 0.55,0.27 0.55,0.61l0 0zm-0.93 -0.03l0.71 0c0,-0.23 -0.07,-0.41 -0.32,-0.42 -0.26,0 -0.38,0.19 -0.39,0.42zm-2.4 -0.12l0 0.92 -0.15 0 -0.04 -0.2 -0.01 0c-0.13,0.17 -0.24,0.22 -0.46,0.22 -0.26,0 -0.42,-0.13 -0.42,-0.4 0,-0.13 0.05,-0.23 0.16,-0.31 0.17,-0.13 0.5,-0.11 0.72,-0.13 0,-0.21 -0.01,-0.39 -0.29,-0.39 -0.11,0 -0.28,0.04 -0.37,0.09l-0.08 -0.15c0.15,-0.08 0.31,-0.11 0.47,-0.11 0.31,-0.01 0.47,0.13 0.47,0.46l0 0zm-0.21 0.25c-0.15,0 -0.44,0 -0.56,0.09 -0.06,0.05 -0.11,0.12 -0.11,0.21 0,0.17 0.11,0.22 0.26,0.22 0.27,0 0.41,-0.14 0.41,-0.4l0 -0.12 0 0 0 0zm5.9 0.69c-0.4,0 -0.55,-0.32 -0.55,-0.69 0,-0.36 0.15,-0.71 0.55,-0.71 0.16,0 0.36,0.06 0.43,0.2l0 -0.74 0.21 0 0 1.92 -0.17 0 -0.03 -0.2 -0.01 0c-0.07,0.16 -0.25,0.22 -0.42,0.22l0 0 -0.01 0zm0.04 -0.17c0.35,0 0.4,-0.23 0.4,-0.53 0,-0.18 -0.03,-0.31 -0.09,-0.39 -0.05,-0.1 -0.17,-0.15 -0.31,-0.15 -0.3,0 -0.37,0.31 -0.37,0.55 0,0.26 0.06,0.52 0.37,0.52l0 0zm-9.57 -0.62l0 0.13 -0.93 0c0,0.28 0.14,0.49 0.44,0.49 0.15,0 0.28,-0.04 0.43,-0.1l0 0.18c-0.15,0.07 -0.28,0.09 -0.44,0.09 -0.44,0 -0.64,-0.27 -0.64,-0.7 0,-0.37 0.18,-0.7 0.58,-0.7 0.37,-0.01 0.56,0.27 0.56,0.61l0 0zm-0.93 -0.03l0.7 0c0,-0.23 -0.07,-0.41 -0.32,-0.42 -0.25,0 -0.37,0.19 -0.38,0.42zm30.09 -6.46c-0.24,-0.14 -0.72,-0.04 -0.72,0.27 0,0.21 0.35,0.36 0.51,0.43 0.26,0.11 0.63,0.29 0.85,0.47 0.26,0.26 0.35,0.63 0.14,0.95 -0.21,0.36 -0.66,0.54 -1.06,0.54 -0.36,0 -0.8,-0.11 -1,-0.43 -0.1,-0.16 -0.16,-0.29 -0.05,-0.45 0.1,-0.15 0.24,-0.11 0.36,-0.04 0.12,0.07 0.19,0.21 0.33,0.27 0.28,0.14 0.89,0.12 0.89,-0.28 0,-0.23 -0.31,-0.35 -0.48,-0.42 -0.45,-0.18 -1.06,-0.44 -1.06,-1.01 0,-0.41 0.25,-0.71 0.64,-0.83 0.4,-0.15 0.97,-0.04 1.28,0.27 0.21,0.18 0.2,0.35 0.11,0.46 -0.09,0.11 -0.25,0.16 -0.38,0.1 -0.13,-0.07 -0.24,-0.22 -0.36,-0.3l0 0zm-6.32 0c-0.24,-0.14 -0.72,-0.04 -0.72,0.27 0,0.21 0.35,0.36 0.5,0.43 0.26,0.11 0.65,0.29 0.86,0.47 0.26,0.26 0.35,0.63 0.14,0.95 -0.21,0.36 -0.66,0.54 -1.06,0.54 -0.36,0 -0.8,-0.11 -1,-0.43 -0.1,-0.16 -0.16,-0.29 -0.05,-0.45 0.1,-0.15 0.24,-0.11 0.36,-0.04 0.12,0.07 0.19,0.21 0.33,0.27 0.28,0.14 0.89,0.12 0.89,-0.28 0,-0.23 -0.31,-0.35 -0.48,-0.42 -0.45,-0.18 -1.06,-0.44 -1.06,-1.01 0,-0.41 0.25,-0.71 0.64,-0.83 0.4,-0.15 0.97,-0.04 1.28,0.27 0.21,0.18 0.2,0.35 0.11,0.46 -0.09,0.11 -0.25,0.16 -0.38,0.1 -0.13,-0.07 -0.24,-0.22 -0.36,-0.3l0 0zm-9.17 0c-0.57,0 -1.04,0.48 -1.04,1.04 0,0.56 0.48,1.04 1.04,1.04 0.38,0 0.55,-0.18 0.82,-0.4 0.14,-0.09 0.35,-0.06 0.43,0.1 0.07,0.1 0,0.28 -0.06,0.34 -0.3,0.38 -0.71,0.55 -1.19,0.55 -0.9,0 -1.63,-0.74 -1.63,-1.63 0,-0.9 0.72,-1.63 1.63,-1.63 0.47,0 0.84,0.15 1.15,0.51 0.11,0.11 0.12,0.32 -0.01,0.42 -0.11,0.11 -0.29,0.11 -0.4,0 -0.24,-0.21 -0.39,-0.34 -0.74,-0.34l0 0zm-13.65 2.66c-0.17,0 -0.31,-0.15 -0.31,-0.31l0 -2.64c0,-0.25 0.22,-0.3 0.36,-0.3 0.15,0 0.25,0.16 0.25,0.29l0 2.65c0,0.17 -0.11,0.31 -0.3,0.31l0 0zm17.46 0l-1.7 0c-0.22,0 -0.34,-0.14 -0.34,-0.35l0 -2.58c0,-0.17 0.03,-0.33 0.31,-0.33l1.73 0c0.16,0 0.31,0.12 0.31,0.29 0,0.17 -0.14,0.29 -0.3,0.29l-1.45 0 0 0.77 1.12 0c0.14,0 0.26,0.1 0.29,0.23 0,0.18 -0.08,0.33 -0.28,0.33l-1.13 0 0 0.75 1.43 0c0.17,0 0.33,0.12 0.33,0.3 0,0.17 -0.16,0.3 -0.32,0.3l0 0zm-18.41 -2.66l-0.74 0 -0.01 2.36c0,0.16 -0.12,0.3 -0.29,0.3 -0.18,0 -0.29,-0.13 -0.29,-0.3l-0.01 -2.36 -0.75 0c-0.18,0 -0.31,-0.11 -0.31,-0.31 0,-0.16 0.15,-0.29 0.31,-0.29l2.09 0c0.17,0 0.31,0.13 0.31,0.31 0,0.18 -0.14,0.29 -0.31,0.29l0 0zm6.38 -0.54c0.08,0.05 0.1,0.12 0.17,0.25l1.01 2.54c0.09,0.16 -0.05,0.36 -0.22,0.4 -0.16,0.03 -0.29,-0.05 -0.34,-0.19l-0.18 -0.46 -1.18 0 -0.19 0.46c-0.07,0.18 -0.25,0.25 -0.43,0.16 -0.11,-0.05 -0.19,-0.2 -0.14,-0.32 0.02,-0.07 0.06,-0.18 0.09,-0.24l0.94 -2.37c0.05,-0.13 0.09,-0.22 0.17,-0.26 0.09,-0.06 0.21,-0.03 0.3,0.03l0 0zm-0.61 2.06l0.92 0 -0.46 -1.18 -0.46 1.18zm-8.64 -1.21c-0.02,0 -0.04,0 -0.06,-0.01 -0.02,0 -0.05,0 -0.07,-0.01 -0.02,-0.01 -0.04,-0.02 -0.06,-0.04 -0.02,-0.01 -0.05,-0.03 -0.07,-0.06 -0.09,-0.08 -0.17,-0.15 -0.24,-0.19 -0.08,-0.05 -0.17,-0.07 -0.27,-0.07 -0.05,0 -0.1,0.01 -0.16,0.02 -0.05,0.02 -0.1,0.04 -0.14,0.07 -0.04,0.03 -0.08,0.06 -0.11,0.1 -0.03,0.05 -0.04,0.09 -0.04,0.15 0,0.06 0.02,0.11 0.07,0.16 0.04,0.05 0.11,0.1 0.18,0.14 0.08,0.04 0.16,0.09 0.26,0.13 0.1,0.04 0.19,0.09 0.29,0.13 0.1,0.05 0.2,0.1 0.3,0.16 0.09,0.05 0.18,0.11 0.26,0.18 0.08,0.07 0.14,0.15 0.19,0.24 0.04,0.09 0.07,0.19 0.07,0.31 0,0.15 -0.05,0.29 -0.11,0.4 -0.07,0.12 -0.17,0.22 -0.28,0.3 -0.11,0.08 -0.24,0.13 -0.37,0.18 -0.14,0.04 -0.28,0.06 -0.43,0.06 -0.17,0 -0.32,-0.02 -0.45,-0.06 -0.13,-0.05 -0.24,-0.09 -0.33,-0.15 -0.09,-0.07 -0.16,-0.14 -0.21,-0.22 -0.05,-0.08 -0.09,-0.16 -0.11,-0.24 0,-0.04 0,-0.07 0.01,-0.11 0.01,-0.04 0.02,-0.07 0.04,-0.1 0.03,-0.03 0.05,-0.05 0.09,-0.07 0.03,-0.02 0.07,-0.03 0.11,-0.03 0.05,0 0.09,0.01 0.14,0.04 0.04,0.02 0.08,0.05 0.13,0.09 0.02,0.04 0.05,0.08 0.09,0.11 0.05,0.04 0.09,0.07 0.14,0.09 0.05,0.03 0.11,0.05 0.17,0.07 0.06,0.01 0.12,0.02 0.19,0.02 0.06,0 0.12,-0.01 0.19,-0.02 0.06,-0.02 0.12,-0.04 0.17,-0.07 0.05,-0.03 0.09,-0.07 0.12,-0.12 0.04,-0.04 0.05,-0.1 0.05,-0.16 0,-0.06 -0.02,-0.12 -0.06,-0.17 -0.05,-0.04 -0.11,-0.09 -0.18,-0.13 -0.07,-0.04 -0.15,-0.08 -0.25,-0.12 -0.09,-0.04 -0.18,-0.08 -0.28,-0.13 -0.1,-0.04 -0.19,-0.09 -0.29,-0.14 -0.09,-0.06 -0.17,-0.12 -0.24,-0.19 -0.07,-0.07 -0.13,-0.15 -0.18,-0.24 -0.04,-0.09 -0.06,-0.19 -0.06,-0.31 0,-0.14 0.02,-0.27 0.08,-0.37 0.05,-0.11 0.12,-0.21 0.22,-0.29 0.09,-0.07 0.21,-0.13 0.34,-0.17 0.13,-0.05 0.27,-0.07 0.42,-0.07 0.08,0 0.16,0.01 0.23,0.02 0.08,0.02 0.16,0.05 0.24,0.08 0.07,0.03 0.14,0.06 0.21,0.1 0.08,0.04 0.12,0.09 0.18,0.14 0.06,0.04 0.1,0.1 0.12,0.16 0.03,0.05 0.05,0.1 0.05,0.15 0,0.05 -0.01,0.09 -0.03,0.13 -0.01,0.03 -0.03,0.05 -0.06,0.07 -0.02,0.02 -0.05,0.04 -0.09,0.04 -0.03,0.01 -0.07,0.02 -0.11,0.02l0 0 -0.01 0zm24.68 6.95l0 -0.14 0.74 -1.06 -0.69 0 0 -0.15 0.92 0 0 0.15 -0.73 1.04 0.74 0 0 0.16 -0.98 0zm-4.8 -1.35l0 1.35 -0.21 0 0 -1.35 0.21 0zm-0.1 -0.51c0.07,0 0.12,0.07 0.12,0.14 0,0.07 -0.05,0.13 -0.12,0.13 -0.08,0 -0.13,-0.06 -0.13,-0.13 0,-0.08 0.05,-0.14 0.13,-0.14zm-1.38 1.86l0 -1.8 1 0 0 0.18 -0.79 0 0 0.65 0.74 0 0 0.18 -0.74 0 0 0.79 -0.21 0zm-1.94 -1.35c0.04,0.11 0.4,0.98 0.4,1.14l0.02 0c0.09,-0.35 0.28,-0.79 0.4,-1.14l0.22 0 -0.6 1.54c-0.04,0.15 -0.1,0.27 -0.25,0.36 -0.17,0.09 -0.24,0.03 -0.39,0.03l0 -0.17c0.04,0.02 0.1,0.02 0.15,0.02 0.24,0 0.3,-0.24 0.36,-0.43l-0.53 -1.35 0.22 0zm-6.99 0l0 1.35 -0.21 0 0 -1.35 0.21 0zm-0.1 -0.51c0.07,0 0.12,0.07 0.12,0.14 0,0.07 -0.05,0.13 -0.12,0.13 -0.09,0 -0.12,-0.05 -0.12,-0.13 0,-0.08 0.03,-0.14 0.12,-0.14zm-1.39 1.19c0,-0.42 0.21,-0.71 0.64,-0.71 0.09,0 0.27,0.02 0.35,0.07l-0.07 0.16c-0.1,-0.02 -0.18,-0.05 -0.29,-0.05 -0.32,0 -0.42,0.26 -0.42,0.53 0,0.28 0.11,0.51 0.41,0.51 0.14,0 0.22,-0.02 0.35,-0.07l0 0.18c-0.11,0.05 -0.23,0.07 -0.35,0.07 -0.42,0 -0.62,-0.29 -0.62,-0.69l0 0zm-1.79 0.67l-0.21 0 0 -0.86 -0.94 0 0 0.86 -0.21 0 0 -1.8 0.21 0 0 0.75 0.94 0 0 -0.75 0.21 0 0 1.8zm-4.52 0.02c-0.41,0 -0.56,-0.32 -0.56,-0.69 0,-0.36 0.16,-0.71 0.56,-0.71 0.15,0 0.35,0.06 0.42,0.2l0 -0.74 0.21 0 0 1.92 -0.17 0 -0.03 -0.2 -0.01 0c-0.08,0.16 -0.26,0.22 -0.42,0.22l0 0 0 0zm0.03 -0.17c0.35,0 0.4,-0.23 0.4,-0.53 0,-0.18 -0.03,-0.31 -0.09,-0.39 -0.05,-0.1 -0.16,-0.15 -0.31,-0.15 -0.3,0 -0.37,0.31 -0.37,0.55 0,0.26 0.07,0.52 0.37,0.52l0 0zm-1.52 -0.54c0,0.41 -0.2,0.71 -0.62,0.71 -0.41,0 -0.62,-0.32 -0.62,-0.71 0,-0.39 0.21,-0.69 0.63,-0.69 0.42,0 0.61,0.31 0.61,0.69l0 0zm-0.62 0.54c0.31,0 0.41,-0.25 0.41,-0.53 0,-0.27 -0.1,-0.53 -0.41,-0.53 -0.33,0 -0.4,0.25 -0.4,0.53 0,0.27 0.08,0.53 0.4,0.53zm-0.97 -1.2l0 1.35 -0.21 0 0 -1.35 0.21 0zm-0.1 -0.51c0.08,0 0.12,0.07 0.12,0.14 0,0.07 -0.04,0.13 -0.12,0.13 -0.08,0 -0.12,-0.05 -0.12,-0.13 0,-0.08 0.03,-0.14 0.12,-0.14zm-0.36 0.5l-0.03 0.18c-0.07,-0.03 -0.22,-0.02 -0.3,0.01 -0.17,0.07 -0.24,0.27 -0.24,0.44l0 0.73 -0.21 0 0 -1.35 0.17 0 0.03 0.23c0.04,-0.06 0.17,-0.2 0.24,-0.23 0.07,-0.03 0.26,-0.05 0.34,-0.01zm-1.12 0.59l0 0.13 -0.93 0c0,0.28 0.14,0.49 0.44,0.49 0.15,0 0.28,-0.04 0.44,-0.1l0 0.18c-0.16,0.07 -0.29,0.09 -0.45,0.09 -0.44,0 -0.64,-0.27 -0.64,-0.7 0,-0.37 0.18,-0.7 0.59,-0.7 0.36,-0.01 0.55,0.27 0.55,0.61l0 0zm-0.93 -0.03l0.72 0c0,-0.23 -0.09,-0.41 -0.34,-0.42 -0.24,0 -0.37,0.19 -0.38,0.42l0 0zm-0.41 0.62l0 0.16c-0.33,0.11 -0.61,0.02 -0.61,-0.37l0 -0.81 -0.19 0 0 -0.1 0.19 -0.08 0.08 -0.3 0.12 0 0 0.33 0.4 0 0 0.15 -0.4 0 0 0.8c0,0.26 0.2,0.29 0.41,0.22l0 0zm-0.96 -0.19c0,0.31 -0.27,0.39 -0.53,0.39 -0.16,0 -0.28,-0.01 -0.43,-0.09l0 -0.18c0.17,0.06 0.25,0.1 0.43,0.1 0.15,0 0.34,-0.02 0.34,-0.21 0,-0.14 -0.23,-0.22 -0.34,-0.26 -0.2,-0.09 -0.42,-0.13 -0.42,-0.41 0,-0.28 0.26,-0.35 0.5,-0.35 0.13,0 0.31,0.03 0.42,0.09l-0.06 0.15c-0.13,-0.04 -0.23,-0.08 -0.38,-0.08 -0.1,0 -0.29,0.04 -0.29,0.17 0,0.17 0.23,0.23 0.35,0.28 0.21,0.06 0.41,0.15 0.41,0.4l0 0zm-1.3 -0.98l0 1.35 -0.2 0 0 -1.35 0.2 0zm-0.1 -0.51c0.08,0 0.12,0.06 0.12,0.14 0,0.08 -0.04,0.13 -0.12,0.13 -0.09,0 -0.12,-0.05 -0.12,-0.13 0,-0.08 0.03,-0.14 0.12,-0.14zm-0.52 0.98l0 0.88 -0.21 0 0 -0.88c0,-0.21 -0.08,-0.33 -0.31,-0.33 -0.32,0 -0.4,0.21 -0.4,0.5l0 0.71 -0.21 0 0 -1.35 0.17 0 0.03 0.19 0.01 0c0.09,-0.15 0.26,-0.22 0.43,-0.22 0.32,-0.01 0.49,0.17 0.49,0.5l0 0zm-1.56 -0.47l0 1.35 -0.2 0 0 -1.35 0.2 0zm-0.1 -0.51c0.09,0 0.12,0.06 0.12,0.14 0,0.08 -0.03,0.13 -0.12,0.13 -0.08,0 -0.12,-0.05 -0.12,-0.13 0,-0.08 0.04,-0.14 0.12,-0.14zm-2.15 0.26l-0.01 0c0,0.53 0.01,1.07 0.01,1.6l-0.19 0 0 -1.8 0.31 0 0.57 1.49 0.01 0 0.58 -1.49 0.3 0 0 1.8 -0.21 0c0,-0.53 0.02,-1.07 0.02,-1.59l-0.02 0 -0.6 1.59 -0.17 0 -0.6 -1.6 0 0zm-6.54 -1.77l52.16 0 0 0.5 -52.16 0 0 -0.5zm42.45 -1.56c0,0.17 -0.11,0.33 -0.29,0.33 -0.1,0 -0.21,-0.07 -0.27,-0.14l-1.69 -1.99c0,0.61 0,1.22 0,1.83 0,0.16 -0.14,0.3 -0.3,0.3 -0.17,0 -0.29,-0.13 -0.29,-0.3l0 -2.65c0,-0.43 0.43,-0.34 0.55,-0.17l1.7 2.01 -0.01 -1.82c0,-0.25 0.11,-0.32 0.24,-0.32 0.22,0 0.36,0.05 0.36,0.3l0 2.62 0 0 0 0zm3.01 -1.3c0,-0.88 0.74,-1.64 1.63,-1.64 0.89,0 1.63,0.75 1.63,1.64 0,0.89 -0.73,1.63 -1.63,1.63 -0.89,0 -1.63,-0.74 -1.63,-1.63zm0.6 0.01c0,0.56 0.46,1.03 1.03,1.03 0.57,0 1.03,-0.47 1.03,-1.04 0,-0.57 -0.46,-1.03 -1.03,-1.03 -0.57,0 -1.03,0.47 -1.03,1.04zm-24.45 -3.72l0 -2.04c0,-0.07 0.03,-0.1 0.1,-0.1l0.76 0c0.67,0 1.17,0.41 1.17,1.11 0,0.71 -0.48,1.13 -1.17,1.13l-0.76 0c-0.07,0 -0.1,-0.03 -0.1,-0.1l0 0zm-19.25 5.34l-1.7 0c-0.21,0 -0.34,-0.14 -0.34,-0.35l0 -2.58c0,-0.17 0.03,-0.33 0.31,-0.33l1.73 0c0.16,0 0.31,0.12 0.31,0.29 0,0.17 -0.14,0.29 -0.3,0.29l-1.45 0 0 0.77 1.12 0c0.14,0 0.26,0.1 0.29,0.23 0,0.18 -0.08,0.33 -0.28,0.33l-1.13 0 0 0.75 1.43 0c0.18,0 0.34,0.12 0.33,0.3 0,0.17 -0.15,0.3 -0.32,0.3l0 0zm12.5 -3.53c0.05,0.05 0.17,0.13 0.23,0.06 0.12,-0.19 0.28,-0.28 0.4,-0.43 0.1,-0.11 -0.15,-0.28 -0.26,-0.18 -0.08,0.08 -0.46,0.43 -0.37,0.55zm-10.56 0.87c-0.24,-0.14 -0.72,-0.04 -0.72,0.27 0,0.21 0.35,0.36 0.51,0.43 0.26,0.11 0.65,0.29 0.85,0.47 0.26,0.26 0.35,0.63 0.14,0.95 -0.21,0.36 -0.66,0.54 -1.06,0.54 -0.36,0 -0.8,-0.11 -1,-0.43 -0.1,-0.16 -0.16,-0.29 -0.05,-0.45 0.1,-0.15 0.24,-0.11 0.36,-0.04 0.12,0.07 0.19,0.21 0.33,0.27 0.28,0.14 0.9,0.12 0.9,-0.28 0,-0.23 -0.32,-0.35 -0.49,-0.42 -0.45,-0.18 -1.06,-0.44 -1.06,-1.01 0,-0.41 0.25,-0.71 0.64,-0.83 0.41,-0.15 0.97,-0.04 1.29,0.27 0.2,0.18 0.19,0.35 0.1,0.46 -0.09,0.11 -0.25,0.16 -0.37,0.1 -0.13,-0.07 -0.24,-0.22 -0.37,-0.3zm3.52 0l-0.75 0 -0.01 2.36c0,0.16 -0.12,0.3 -0.29,0.3 -0.18,0 -0.29,-0.13 -0.29,-0.3l-0.01 -2.36 -0.75 0c-0.18,0 -0.31,-0.11 -0.31,-0.31 0,-0.16 0.15,-0.29 0.31,-0.29l2.1 0c0.17,0 0.31,0.13 0.31,0.31 0,0.18 -0.14,0.29 -0.31,0.29l0 0zm1.68 -0.54c0.08,0.05 0.1,0.12 0.17,0.25l1.01 2.54c0.08,0.16 -0.04,0.36 -0.22,0.4 -0.16,0.03 -0.28,-0.05 -0.34,-0.19l-0.18 -0.46 -1.18 0 -0.19 0.46c-0.07,0.18 -0.25,0.25 -0.43,0.16 -0.11,-0.05 -0.19,-0.2 -0.15,-0.32 0.02,-0.07 0.07,-0.18 0.1,-0.24l0.94 -2.37c0.05,-0.13 0.09,-0.22 0.17,-0.26 0.09,-0.06 0.21,-0.03 0.3,0.03l0 0zm-0.61 2.06l0.92 0 -0.46 -1.18 -0.46 1.18zm2.4 0.84l0 -2.65c0,-0.19 0.02,-0.31 0.32,-0.31l0.77 0c0.88,0 1.63,0.74 1.63,1.63 0,0.88 -0.74,1.63 -1.63,1.63l-0.79 0c-0.17,0 -0.3,-0.13 -0.3,-0.3zm1.09 -2.39l-0.49 0 0 2.1 0.49 0c0.57,0 1.03,-0.47 1.03,-1.04 0,-0.57 -0.45,-1.06 -1.03,-1.06l0 0zm2.41 2.69c-0.16,0 -0.31,-0.15 -0.31,-0.31l0 -2.64c0,-0.25 0.22,-0.3 0.36,-0.3 0.15,0 0.25,0.16 0.25,0.29l0 2.65c0,0.17 -0.11,0.31 -0.3,0.31l0 0zm8.92 -2.66c-0.56,0 -1.04,0.48 -1.04,1.04 0,0.56 0.48,1.04 1.04,1.04 0.37,0 0.55,-0.18 0.82,-0.4 0.14,-0.09 0.35,-0.06 0.43,0.1 0.07,0.1 0,0.28 -0.06,0.34 -0.3,0.38 -0.72,0.55 -1.19,0.55 -0.9,0 -1.63,-0.74 -1.63,-1.63 0,-0.9 0.73,-1.63 1.63,-1.63 0.46,0 0.84,0.15 1.15,0.51 0.12,0.11 0.13,0.32 -0.01,0.42 -0.1,0.11 -0.29,0.11 -0.4,0 -0.25,-0.21 -0.4,-0.34 -0.74,-0.34l0 0zm7.42 1.22l0 1.14c0,0.17 -0.14,0.3 -0.29,0.3 -0.18,0 -0.31,-0.14 -0.31,-0.3l0 -1.13 -1.09 -1.31c-0.1,-0.12 -0.12,-0.31 0,-0.44 0.1,-0.09 0.34,-0.13 0.42,0.02l0.97 1.22 0.97 -1.22c0.09,-0.14 0.33,-0.12 0.42,-0.02 0.15,0.16 0.11,0.3 0,0.44l-1.1 1.3 0 0 0.01 0zm19 -4.59c0.03,0.35 0.28,0.59 0.63,0.59 0.21,0 0.38,-0.06 0.54,-0.19 0.06,-0.05 0.1,-0.05 0.15,0l0.03 0.03c0.05,0.04 0.04,0.09 0,0.14 -0.2,0.18 -0.45,0.26 -0.72,0.26 -0.52,0 -0.91,-0.37 -0.91,-0.9 0,-0.5 0.36,-0.91 0.86,-0.91 0.51,0 0.87,0.37 0.87,0.87 0,0.04 -0.01,0.06 -0.03,0.08 -0.02,0.02 -0.05,0.03 -0.09,0.03l-1.33 0 0 0 0 0zm0.01 -0.22l1.16 0c-0.04,-0.32 -0.26,-0.53 -0.59,-0.52 -0.31,0 -0.53,0.2 -0.57,0.52zm-0.66 -1.45c0.07,-0.02 0.11,0.01 0.11,0.09l0 2.27c0,0.06 -0.04,0.1 -0.1,0.1l-0.08 0c-0.05,0 -0.09,-0.05 -0.09,-0.1l0 -0.13c-0.17,0.18 -0.37,0.27 -0.62,0.27 -0.5,0 -0.89,-0.39 -0.89,-0.9 0,-0.51 0.37,-0.91 0.89,-0.91 0.24,0 0.45,0.09 0.61,0.26l0 -0.83c0,-0.05 0.03,-0.09 0.09,-0.1l0.08 -0.02 0 0zm-0.76 2.26c0.39,0 0.62,-0.29 0.62,-0.66 0,-0.38 -0.21,-0.66 -0.62,-0.66 -0.38,0 -0.62,0.29 -0.62,0.66 0,0.36 0.25,0.66 0.62,0.66zm-2.17 0.2c-0.06,0 -0.08,-0.04 -0.08,-0.1l0 -2.24c0,-0.05 0.03,-0.08 0.09,-0.1l0.07 -0.02c0.07,-0.02 0.11,0.01 0.11,0.09l0 2.27c0,0.05 -0.04,0.09 -0.08,0.1 -0.04,0 -0.07,0 -0.11,0l0 0zm-1.15 -1.77c0.45,0 0.72,0.25 0.72,0.72l0 0.95c0,0.07 -0.03,0.1 -0.09,0.1l-0.07 0c-0.06,0 -0.09,-0.04 -0.09,-0.1l0 -0.13c-0.16,0.18 -0.36,0.27 -0.6,0.27 -0.34,0 -0.67,-0.18 -0.67,-0.56 0,-0.4 0.39,-0.57 0.74,-0.57 0.17,0 0.34,0.04 0.52,0.13 0,-0.19 0.01,-0.33 -0.13,-0.45 -0.24,-0.22 -0.63,-0.12 -0.87,0.06 -0.05,0.04 -0.09,0.03 -0.13,-0.02l-0.02 -0.03c-0.02,-0.05 -0.03,-0.11 0.01,-0.14 0.15,-0.14 0.47,-0.23 0.68,-0.23l0 0 0 0zm0.38 1.37c0.09,-0.12 0.08,-0.2 0.08,-0.34 -0.18,-0.1 -0.35,-0.14 -0.51,-0.14 -0.22,0 -0.47,0.11 -0.47,0.36 0,0.43 0.66,0.4 0.9,0.12zm-1.13 -1.14c-0.01,0.03 -0.04,0.04 -0.07,0.04 -0.05,0 -0.07,-0.02 -0.13,-0.03 -0.12,-0.01 -0.27,0.06 -0.34,0.16 -0.06,0.11 -0.1,0.21 -0.1,0.38l0 0.89c0,0.06 -0.03,0.1 -0.09,0.1l-0.09 0c-0.07,0 -0.09,-0.04 -0.09,-0.1l0 -1.54c0,-0.06 0.02,-0.1 0.09,-0.1l0.07 0c0.05,0 0.09,0.04 0.09,0.1l0 0.14c0.12,-0.22 0.33,-0.31 0.57,-0.26 0.08,0.02 0.14,0.03 0.13,0.11 0,0.01 -0.03,0.1 -0.04,0.11l0 0zm-2.58 0.75c0.04,0.35 0.29,0.59 0.64,0.59 0.19,0 0.37,-0.06 0.53,-0.19 0.05,-0.05 0.1,-0.05 0.15,0l0.03 0.03c0.04,0.04 0.04,0.09 0,0.14 -0.2,0.18 -0.45,0.26 -0.71,0.26 -0.53,0 -0.92,-0.36 -0.92,-0.9 0,-0.5 0.36,-0.91 0.87,-0.91 0.5,0 0.86,0.38 0.86,0.87 0,0.08 -0.05,0.11 -0.12,0.11l-1.33 0 0 0 0 0zm0.01 -0.22l1.16 0c-0.05,-0.33 -0.26,-0.52 -0.58,-0.52 -0.32,0 -0.54,0.2 -0.58,0.52l0 0zm-0.5 -0.04l0 0.95c0,0.06 -0.03,0.1 -0.09,0.1l-0.09 0c-0.06,0 -0.09,-0.04 -0.09,-0.1l0 -0.93c0,-0.29 -0.17,-0.49 -0.48,-0.49 -0.31,0 -0.51,0.18 -0.51,0.49l0 0.93c0,0.06 -0.03,0.1 -0.09,0.1l-0.09 0c-0.06,0 -0.09,-0.04 -0.09,-0.1l0 -1.54c0,-0.06 0.03,-0.1 0.09,-0.1l0.07 0c0.06,0 0.09,0.04 0.09,0.1l0 0.14c0.14,-0.2 0.34,-0.27 0.59,-0.27 0.42,0 0.69,0.28 0.69,0.72l0 0zm-2.56 0.85c0.19,0 0.37,-0.06 0.53,-0.19 0.05,-0.05 0.1,-0.05 0.14,0l0.04 0.03c0.04,0.04 0.04,0.09 -0.01,0.14 -0.18,0.18 -0.45,0.26 -0.7,0.26 -0.53,0 -0.92,-0.36 -0.92,-0.9 0,-0.51 0.36,-0.91 0.87,-0.91 0.5,0 0.86,0.38 0.86,0.87 0,0.08 -0.05,0.11 -0.12,0.11l-1.33 0c0.05,0.37 0.26,0.59 0.64,0.59l0 0zm-0.64 -0.81l1.17 0c-0.04,-0.32 -0.26,-0.52 -0.57,-0.52 -0.33,0 -0.54,0.19 -0.6,0.52zm-2.49 -0.1c0,-0.69 0.5,-1.17 1.17,-1.17 0.26,0 0.49,0.07 0.7,0.23 0.08,0.08 0.02,0.11 -0.02,0.18 -0.05,0.04 -0.13,0.03 -0.17,0 -0.16,-0.1 -0.33,-0.16 -0.52,-0.16 -0.51,0 -0.88,0.41 -0.88,0.92 0,0.49 0.38,0.9 0.89,0.9 0.26,0 0.4,-0.06 0.61,-0.2l0 -0.56 -0.62 0c-0.07,0 -0.1,-0.04 -0.1,-0.1l0 -0.06c0,-0.06 0.03,-0.09 0.1,-0.09l0.79 0c0.07,0 0.1,0.02 0.1,0.11l0 0.73c0,0.09 -0.03,0.12 -0.09,0.17 -0.23,0.18 -0.51,0.25 -0.8,0.25 -0.66,0 -1.16,-0.49 -1.16,-1.15l0 0zm-1.77 -0.66c0.44,0 0.7,0.29 0.7,0.72l0 0.95c0,0.06 -0.03,0.1 -0.09,0.1l-0.09 0c-0.06,0 -0.09,-0.04 -0.09,-0.1l0 -0.93c0,-0.29 -0.17,-0.49 -0.48,-0.49 -0.31,0 -0.51,0.18 -0.51,0.49l0 0.93c0,0.06 -0.03,0.1 -0.09,0.1l-0.09 0c-0.06,0 -0.09,-0.04 -0.09,-0.1l0 -1.54c0,-0.06 0.03,-0.1 0.09,-0.1l0.07 0c0.06,0 0.09,0.04 0.09,0.1l0 0.14c0.13,-0.18 0.32,-0.27 0.58,-0.27l0 0 0 0zm-2.33 -0.29c-0.02,-0.03 0,-0.07 0.05,-0.11l0.43 -0.34c0.07,-0.05 0.12,-0.06 0.16,0l0.03 0.05c0.03,0.04 0.04,0.06 0.03,0.09 -0.01,0.02 -0.03,0.04 -0.06,0.06l-0.48 0.29c-0.05,0.03 -0.09,0.04 -0.12,0.02 -0.01,-0.01 -0.04,-0.05 -0.04,-0.06l0 0zm0.35 2.1c-0.51,0 -0.92,-0.38 -0.92,-0.9 0,-0.53 0.4,-0.91 0.92,-0.91 0.52,0 0.92,0.38 0.92,0.91 0,0.52 -0.4,0.9 -0.92,0.9zm0 -0.24c0.38,0 0.64,-0.29 0.64,-0.66 0,-0.38 -0.26,-0.66 -0.64,-0.66 -0.38,0 -0.64,0.28 -0.64,0.66 0,0.37 0.27,0.66 0.64,0.66zm-1.29 -1.86c-0.13,0 -0.21,-0.09 -0.21,-0.21 0,-0.12 0.09,-0.22 0.21,-0.22 0.12,0 0.22,0.1 0.22,0.22 0,0.12 -0.1,0.21 -0.22,0.21zm-0.05 2.06c-0.06,0 -0.09,-0.05 -0.09,-0.1l0 -1.54c0,-0.05 0.03,-0.1 0.09,-0.1l0.09 0c0.06,0 0.1,0.04 0.1,0.1l0 1.54c0,0.06 -0.04,0.1 -0.1,0.1l-0.09 0zm-0.99 0.04c-0.53,0 -0.92,-0.36 -0.92,-0.9 0,-0.54 0.39,-0.91 0.92,-0.91 0.26,0 0.49,0.09 0.66,0.26 0.05,0.05 0.05,0.1 0.01,0.13l-0.04 0.04c-0.06,0.06 -0.1,0.03 -0.15,0 -0.14,-0.13 -0.3,-0.18 -0.48,-0.18 -0.39,0 -0.65,0.28 -0.65,0.66 0,0.38 0.27,0.66 0.65,0.66 0.17,0 0.35,-0.06 0.48,-0.19 0.05,-0.05 0.1,-0.05 0.15,0l0.04 0.03c0.04,0.04 0.04,0.09 -0.01,0.14 -0.17,0.18 -0.4,0.26 -0.66,0.26zm-1.7 0c-0.53,0 -0.91,-0.37 -0.91,-0.9 0,-0.53 0.38,-0.91 0.91,-0.91 0.27,0 0.5,0.09 0.67,0.26 0.05,0.05 0.05,0.1 0.01,0.13l-0.04 0.04c-0.07,0.08 -0.14,0.01 -0.2,-0.04 -0.12,-0.1 -0.26,-0.14 -0.43,-0.14 -0.39,0 -0.65,0.28 -0.65,0.66 0,0.38 0.26,0.66 0.65,0.66 0.18,0 0.36,-0.06 0.48,-0.19 0.05,-0.05 0.1,-0.05 0.15,0l0.04 0.03c0.04,0.04 0.04,0.09 -0.01,0.14 -0.17,0.18 -0.4,0.26 -0.67,0.26zm-2.46 -0.83c0.02,0.35 0.28,0.59 0.63,0.59 0.2,0 0.38,-0.06 0.53,-0.19 0.04,-0.04 0.08,-0.05 0.13,-0.01 0.02,0.01 0.06,0.04 0.07,0.06 0.03,0.04 0.02,0.08 -0.02,0.12 -0.18,0.18 -0.46,0.26 -0.71,0.26 -0.53,0 -0.91,-0.37 -0.91,-0.9 0,-0.51 0.35,-0.91 0.87,-0.91 0.49,0 0.86,0.38 0.86,0.87 0,0.08 -0.05,0.11 -0.12,0.11l-1.33 0 0 0 0 0zm0 -0.22l1.17 0c-0.04,-0.31 -0.27,-0.53 -0.58,-0.53 -0.31,0.01 -0.55,0.22 -0.59,0.53zm-0.24 -0.73c0.06,0.02 0.08,0.05 0.06,0.12l-0.02 0.05c-0.02,0.05 -0.06,0.09 -0.12,0.07 -0.13,-0.07 -0.33,0.01 -0.42,0.13 -0.07,0.11 -0.11,0.21 -0.11,0.38l0 0.89c0,0.06 -0.03,0.1 -0.09,0.1l-0.09 0c-0.06,0 -0.09,-0.04 -0.09,-0.1l0 -1.54c0,-0.06 0.03,-0.1 0.09,-0.1l0.07 0c0.07,0 0.09,0.04 0.09,0.1l0 0.14c0.13,-0.24 0.38,-0.33 0.63,-0.24l0 0zm-1.38 -0.32c-0.12,0 -0.21,-0.09 -0.21,-0.21 0,-0.12 0.09,-0.22 0.21,-0.22 0.11,0 0.23,0.1 0.23,0.22 0,0.12 -0.12,0.21 -0.23,0.21zm-0.04 2.06c-0.06,0 -0.1,-0.04 -0.1,-0.1l0 -1.54c0,-0.06 0.04,-0.1 0.1,-0.1l0.08 0c0.05,0 0.1,0.04 0.1,0.1l0 1.54c0,0.06 -0.05,0.1 -0.1,0.1l-0.08 0zm-2.11 -0.24l0.59 0c0.53,0 0.89,-0.35 0.89,-0.87 0,-0.55 -0.35,-0.89 -0.89,-0.89l-0.59 0 0 1.76 0 0z"/>
 </g>
</svg>
