<?xml version="1.0" encoding="UTF-8"?>
<!DOCTYPE svg PUBLIC "-//W3C//DTD SVG 1.1//EN" "http://www.w3.org/Graphics/SVG/1.1/DTD/svg11.dtd">
<!-- Creator: CorelDRAW 2018 (64 Bit) -->
<svg xmlns="http://www.w3.org/2000/svg" xml:space="preserve" width="86px" height="20px" version="1.1" shape-rendering="geometricPrecision" text-rendering="geometricPrecision" image-rendering="optimizeQuality" fill-rule="evenodd" clip-rule="evenodd"
viewBox="0 0 86 20"
 xmlns:xlink="http://www.w3.org/1999/xlink">
 <g id="Capa_x0020_1">
  <metadata id="CorelCorpID_0Corel-Layer"/>
  <g id="_2262747051568">
   <g id="Capa_1-2" data-name="Capa_1">
    <g>
     <g>
      <g>
       <path fill="#FEFEFE" d="M9.31 9.04l1.79 -1.75c0.11,-0.11 0.24,-0.19 0.37,-0.26 0.04,-0.02 0.07,-0.06 0.07,-0.11l-0.04 -3.6 0 -0.41c0,-0.08 -0.03,-0.15 -0.07,-0.22l-0.72 -1.06c-0.08,-0.11 -0.22,-0.16 -0.35,-0.17 -0.01,0 -0.02,0 -0.02,0 -0.01,0 -0.02,0 -0.02,0 -0.14,0 -0.27,0.06 -0.35,0.17l-0.72 1.06c-0.04,0.06 -0.07,0.14 -0.07,0.22l0 0.41c0,0 -0.07,5.63 -0.07,5.63 0,0.1 0.13,0.16 0.21,0.08l-0.01 0.01z"/>
       <path fill="#FEFEFE" d="M11.39 11.09l-2.3 2.24c-0.02,0.02 -0.03,0.05 -0.03,0.08l-0.05 4.03c0,0.14 0.1,0.25 0.24,0.25l2.18 0c0.13,0 0.24,-0.11 0.24,-0.25l-0.07 -6.27c0,-0.1 -0.13,-0.16 -0.2,-0.08l-0.01 0z"/>
       <path fill="#FEFEFE" d="M7.61 6.37l-1.91 0c-0.13,0 -0.24,0.11 -0.24,0.25l0 4.31c0,0.03 0.01,0.06 0.03,0.08l0.81 0.79c0.05,0.05 0.12,0.05 0.17,0l1.34 -1.3c0.02,-0.03 0.03,-0.06 0.03,-0.09l0 -3.79c0,-0.14 -0.11,-0.25 -0.24,-0.25l0.01 0z"/>
       <path fill="#FEFEFE" d="M14.97 5.14l-1.91 0c-0.13,0 -0.24,0.11 -0.24,0.24l0 1.6c0,0.05 0.02,0.08 0.06,0.11 0.1,0.06 0.19,0.13 0.28,0.21l1.68 1.64c0.05,0.04 0.12,0.04 0.17,0l0.16 -0.16c0.03,-0.03 0.04,-0.06 0.04,-0.09l0 -3.31c0,-0.13 -0.11,-0.24 -0.24,-0.24l0 0z"/>
       <path fill="#FEFEFE" d="M15.07 12.49c-0.42,0.04 -0.85,-0.09 -1.18,-0.41l-0.87 -0.84c-0.07,-0.08 -0.2,-0.02 -0.2,0.08l0 6.12c0,0.14 0.11,0.25 0.24,0.25l1.91 0c0.13,0 0.24,-0.11 0.24,-0.25l0 -4.83c0,-0.07 -0.07,-0.12 -0.14,-0.12l0 0z"/>
       <path fill="#FEFEFE" d="M7.65 14.73l-0.23 0.22c-0.48,0.47 -1.22,0.54 -1.77,0.21 -0.09,-0.05 -0.19,0.01 -0.19,0.1l0 2.18c0,0.13 0.11,0.24 0.24,0.24l1.91 0c0.13,0 0.24,-0.11 0.24,-0.24l0 -2.63c0,-0.1 -0.12,-0.15 -0.2,-0.08l0 0z"/>
      </g>
      <path fill="#FEFEFE" d="M19.72 18.8l-18.17 0 0 -4.23 0.26 -0.25 0 0c0,0 0.48,-0.47 0.48,-0.47l0 0c0,0 1.59,-1.55 1.59,-1.55l2.09 2.03c0.23,0.22 0.61,0.22 0.84,0l5.23 -5.1c0.05,-0.04 0.12,-0.04 0.17,0l2.29 2.23c0.23,0.23 0.61,0.23 0.84,0l3.61 -3.51 0 1.22c0,0.32 0.27,0.59 0.6,0.59 0.32,0 0.59,-0.27 0.59,-0.59l0 -2.63c0,0 0,-0.01 0,-0.01 0,-0.03 0,-0.06 -0.01,-0.08 0,-0.01 0,-0.02 0,-0.03 -0.01,-0.03 -0.02,-0.07 -0.03,-0.1l0 0c0,0 -0.01,-0.01 -0.01,-0.02 -0.01,-0.02 -0.03,-0.05 -0.04,-0.07 -0.01,-0.01 -0.01,-0.02 -0.02,-0.03 -0.01,-0.02 -0.03,-0.04 -0.04,-0.05 -0.01,-0.01 -0.02,-0.02 -0.03,-0.03 -0.02,-0.02 -0.04,-0.03 -0.07,-0.05 0,0 0,-0.01 -0.01,-0.01 -0.02,-0.02 -0.05,-0.04 -0.09,-0.05 -0.01,0 -0.01,-0.01 -0.03,-0.01 -0.02,-0.01 -0.04,-0.02 -0.07,-0.02 -0.01,0 -0.02,-0.01 -0.03,-0.01 -0.04,-0.01 -0.07,-0.01 -0.11,-0.01l-2.83 0c-0.33,0 -0.6,0.26 -0.6,0.58 0,0.32 0.27,0.58 0.6,0.58l1.39 0 -3.1 3.02c-0.05,0.04 -0.12,0.04 -0.17,0l-2.29 -2.23c-0.23,-0.23 -0.61,-0.23 -0.85,0l-5.22 5.1c-0.05,0.04 -0.12,0.04 -0.17,0l-2 -1.95c-0.24,-0.23 -0.61,-0.23 -0.85,0l-1.91 1.86 0 -12.32c0,-0.33 -0.27,-0.6 -0.61,-0.6 -0.33,0 -0.6,0.27 -0.6,0.6l0 18.8c0,0.33 0.27,0.6 0.6,0.6l18.79 0c0.33,0 0.61,-0.27 0.61,-0.6 0,-0.33 -0.28,-0.6 -0.61,-0.6l-0.01 0z"/>
     </g>
     <g>
      <path fill="#FEFEFE" d="M26.38 6.49c0,-0.71 0.56,-1.26 1.26,-1.26 0.7,0 1.26,0.55 1.26,1.26l0 9.09c0,0.71 -0.56,1.26 -1.26,1.26 -0.7,0 -1.26,-0.55 -1.26,-1.26l0 -9.09z"/>
      <path fill="#FEFEFE" d="M30.93 6.58c0,-0.7 0.56,-1.25 1.26,-1.25l3.19 0c3.59,0 6.07,2.46 6.07,5.67l0 0.03c0,3.21 -2.48,5.71 -6.07,5.71l-3.19 0c-0.7,0 -1.26,-0.56 -1.26,-1.26l0 -8.9 0 0zm4.45 7.9c2.06,0 3.44,-1.39 3.44,-3.41l0 -0.03c0,-2.02 -1.38,-3.44 -3.44,-3.44l-1.94 0 0 6.88 1.94 0 0 0z"/>
      <path fill="#FEFEFE" d="M42.87 15.49l0 -8.91c0,-0.7 0.55,-1.25 1.25,-1.25l6.32 0c0.63,0 1.13,0.5 1.13,1.12 0,0.62 -0.51,1.11 -1.13,1.11l-5.08 0 0 2.31 4.35 0c0.62,0 1.13,0.51 1.13,1.13 0,0.61 -0.51,1.1 -1.13,1.1l-4.35 0 0 2.4 5.17 0c0.62,0 1.12,0.51 1.12,1.12 0,0.62 -0.51,1.11 -1.12,1.11l-6.41 0c-0.7,0 -1.25,-0.55 -1.25,-1.25l0 0.01z"/>
      <path fill="#FEFEFE" d="M52.47 11.07l0 -0.03c0,-3.25 2.45,-5.9 5.95,-5.9 1.71,0 2.87,0.45 3.81,1.16 0.27,0.19 0.49,0.55 0.49,0.99 0,0.69 -0.55,1.22 -1.24,1.22 -0.34,0 -0.57,-0.13 -0.75,-0.24 -0.7,-0.53 -1.43,-0.82 -2.33,-0.82 -1.92,0 -3.31,1.6 -3.31,3.55l0 0.04c0,1.95 1.35,3.58 3.31,3.58 1.06,0 1.76,-0.33 2.48,-0.9 0.19,-0.16 0.45,-0.27 0.75,-0.27 0.63,0 1.17,0.52 1.17,1.15 0,0.39 -0.2,0.71 -0.43,0.9 -1.02,0.9 -2.23,1.44 -4.06,1.44 -3.36,0 -5.85,-2.59 -5.85,-5.87l0.01 0z"/>
      <path fill="#FEFEFE" d="M64.19 6.58c0,-0.7 0.55,-1.25 1.25,-1.25l4.05 0c1.3,0 2.33,0.36 2.98,1.01 0.52,0.52 0.78,1.16 0.78,1.94l0 0.03c0,1.29 -0.68,2 -1.49,2.46 1.31,0.51 2.13,1.27 2.13,2.8l0 0.04c0,2.08 -1.7,3.12 -4.27,3.12l-4.18 0c-0.7,0 -1.25,-0.55 -1.25,-1.25l0 -8.9 0 0zm4.76 3.36c1.11,0 1.81,-0.36 1.81,-1.2l0 -0.03c0,-0.75 -0.58,-1.18 -1.64,-1.18l-2.48 0 0 2.42 2.31 0 0 -0.01zm0.67 4.6c1.11,0 1.78,-0.39 1.78,-1.24l0 -0.03c0,-0.76 -0.57,-1.24 -1.86,-1.24l-2.9 0 0 2.51 2.98 0 0 0z"/>
      <path fill="#FEFEFE" d="M74.51 15.13l3.98 -8.99c0.28,-0.62 0.78,-0.99 1.47,-0.99l0.15 0c0.68,0 1.17,0.37 1.45,0.99l3.97 8.99c0.09,0.18 0.13,0.34 0.13,0.5 0,0.67 -0.52,1.21 -1.19,1.21 -0.58,0 -0.98,-0.34 -1.2,-0.87l-0.77 -1.79 -5.02 0 -0.8 1.88c-0.21,0.48 -0.63,0.78 -1.16,0.78 -0.65,0 -1.15,-0.52 -1.15,-1.17 0,-0.18 0.06,-0.36 0.14,-0.54l0 0zm7.06 -3.17l-1.58 -3.76 -1.58 3.76 3.16 0 0 0z"/>
     </g>
    </g>
   </g>
  </g>
 </g>
</svg>
