<?xml version="1.0" encoding="UTF-8"?>
<!DOCTYPE svg PUBLIC "-//W3C//DTD SVG 1.1//EN" "http://www.w3.org/Graphics/SVG/1.1/DTD/svg11.dtd">
<!-- Creator: CorelDRAW 2018 (64 Bit) -->
<svg xmlns="http://www.w3.org/2000/svg" xml:space="preserve" width="52px" height="20px" version="1.1" shape-rendering="geometricPrecision" text-rendering="geometricPrecision" image-rendering="optimizeQuality" fill-rule="evenodd" clip-rule="evenodd"
viewBox="0 0 52 20"
 xmlns:xlink="http://www.w3.org/1999/xlink">
 <g id="Capa_x0020_1">
  <metadata id="CorelCorpID_0Corel-Layer"/>
  <path fill="#373435" d="M20.78 5.79l-3.9 3.15 -5.92 0 -2.33 -1.41 -2.56 2.33 -5.93 0 5.09 -4.63 5.88 0 2.49 1.59 1.22 -1.03 -0.9 0 0 -0.24 3.2 0 2.57 -2.14 -1.94 0 7.84 -3.41 1.39 3.41 -1.44 0 -2.56 2.14 1.02 0 0 0.24 -3.22 0zm24.95 13.24c0,0.08 -0.02,0.15 -0.06,0.21 -0.05,0.06 -0.11,0.11 -0.19,0.14 -0.08,0.02 -0.17,0.04 -0.29,0.04 -0.09,0 -0.17,-0.01 -0.24,-0.02 -0.07,-0.02 -0.13,-0.04 -0.18,-0.07l0 -0.18c0.05,0.02 0.12,0.05 0.2,0.07 0.07,0.02 0.15,0.03 0.23,0.03 0.12,0 0.2,-0.02 0.25,-0.05 0.06,-0.04 0.08,-0.09 0.08,-0.16 0,-0.03 -0.01,-0.07 -0.03,-0.09 -0.02,-0.03 -0.06,-0.06 -0.1,-0.09 -0.05,-0.02 -0.12,-0.05 -0.21,-0.08 -0.08,-0.04 -0.16,-0.07 -0.22,-0.1 -0.06,-0.03 -0.11,-0.07 -0.15,-0.12 -0.03,-0.05 -0.05,-0.11 -0.05,-0.18 0,-0.12 0.05,-0.2 0.14,-0.27 0.09,-0.06 0.21,-0.09 0.36,-0.09 0.09,0 0.16,0.01 0.23,0.03 0.07,0.01 0.14,0.03 0.2,0.06l-0.07 0.16c-0.05,-0.02 -0.11,-0.04 -0.18,-0.06 -0.06,-0.01 -0.12,-0.02 -0.19,-0.02 -0.09,0 -0.17,0.01 -0.22,0.05 -0.05,0.03 -0.07,0.07 -0.07,0.12 0,0.05 0.01,0.08 0.03,0.11 0.03,0.02 0.06,0.05 0.12,0.07 0.05,0.03 0.11,0.06 0.2,0.09 0.08,0.03 0.16,0.06 0.22,0.09 0.06,0.04 0.11,0.08 0.14,0.12 0.03,0.05 0.05,0.11 0.05,0.19zm-1.77 -1.01c0.16,0 0.28,0.04 0.36,0.11 0.08,0.07 0.12,0.19 0.12,0.35l0 0.92 -0.15 0 -0.04 -0.2 -0.01 0c-0.04,0.05 -0.08,0.09 -0.12,0.12 -0.04,0.03 -0.09,0.06 -0.14,0.08 -0.06,0.01 -0.12,0.02 -0.2,0.02 -0.08,0 -0.15,-0.01 -0.22,-0.04 -0.06,-0.03 -0.11,-0.08 -0.15,-0.13 -0.03,-0.06 -0.05,-0.14 -0.05,-0.23 0,-0.13 0.05,-0.23 0.16,-0.31 0.1,-0.07 0.27,-0.11 0.48,-0.11l0.24 -0.01 0 -0.09c0,-0.11 -0.03,-0.2 -0.08,-0.24 -0.05,-0.05 -0.12,-0.07 -0.21,-0.07 -0.07,0 -0.14,0.01 -0.2,0.03 -0.06,0.02 -0.13,0.04 -0.18,0.07l-0.07 -0.16c0.07,-0.03 0.14,-0.05 0.21,-0.08 0.08,-0.02 0.17,-0.03 0.25,-0.03zm0.28 0.71l-0.21 0.01c-0.17,0.01 -0.29,0.03 -0.36,0.08 -0.06,0.05 -0.1,0.12 -0.1,0.21 0,0.07 0.03,0.13 0.07,0.17 0.05,0.04 0.11,0.05 0.19,0.05 0.12,0 0.22,-0.03 0.29,-0.1 0.08,-0.06 0.12,-0.16 0.12,-0.3l0 -0.12zm-1.1 0.67l-0.98 0 0 -0.14 0.74 -1.05 -0.69 0 0 -0.16 0.92 0 0 0.15 -0.73 1.04 0.74 0 0 0.16zm-1.77 -1.38c0.16,0 0.28,0.04 0.36,0.12 0.09,0.08 0.13,0.2 0.13,0.38l0 0.88 -0.21 0 0 -0.87c0,-0.11 -0.02,-0.2 -0.07,-0.25 -0.05,-0.06 -0.13,-0.09 -0.24,-0.09 -0.15,0 -0.25,0.05 -0.31,0.13 -0.06,0.09 -0.09,0.21 -0.09,0.37l0 0.71 -0.21 0 0 -1.35 0.17 0 0.03 0.19 0.01 0c0.03,-0.05 0.06,-0.09 0.11,-0.12 0.04,-0.03 0.09,-0.06 0.15,-0.07 0.05,-0.02 0.11,-0.03 0.17,-0.03zm-1.53 0c0.16,0 0.28,0.04 0.35,0.11 0.08,0.07 0.12,0.19 0.12,0.35l0 0.92 -0.15 0 -0.04 -0.2 -0.01 0c-0.03,0.05 -0.07,0.09 -0.11,0.12 -0.05,0.03 -0.09,0.06 -0.15,0.08 -0.05,0.01 -0.12,0.02 -0.19,0.02 -0.09,0 -0.16,-0.01 -0.22,-0.04 -0.07,-0.03 -0.12,-0.08 -0.15,-0.13 -0.04,-0.06 -0.06,-0.14 -0.06,-0.23 0,-0.13 0.06,-0.23 0.16,-0.31 0.11,-0.07 0.27,-0.11 0.49,-0.11l0.23 -0.01 0 -0.09c0,-0.11 -0.02,-0.2 -0.07,-0.24 -0.05,-0.05 -0.12,-0.07 -0.21,-0.07 -0.07,0 -0.14,0.01 -0.21,0.03 -0.06,0.02 -0.12,0.04 -0.18,0.07l-0.06 -0.16c0.06,-0.03 0.13,-0.05 0.21,-0.08 0.08,-0.02 0.16,-0.03 0.25,-0.03zm0.27 0.71l-0.21 0.01c-0.16,0.01 -0.28,0.03 -0.35,0.08 -0.07,0.05 -0.1,0.12 -0.1,0.21 0,0.07 0.02,0.13 0.07,0.17 0.04,0.04 0.1,0.05 0.18,0.05 0.12,0 0.22,-0.03 0.3,-0.1 0.07,-0.06 0.11,-0.16 0.11,-0.3l0 -0.12zm-1.68 -0.71c0.16,0 0.28,0.04 0.36,0.12 0.08,0.08 0.12,0.2 0.12,0.38l0 0.88 -0.2 0 0 -0.87c0,-0.11 -0.03,-0.2 -0.08,-0.25 -0.05,-0.06 -0.13,-0.09 -0.23,-0.09 -0.15,0 -0.26,0.05 -0.32,0.13 -0.06,0.09 -0.09,0.21 -0.09,0.37l0 0.71 -0.2 0 0 -1.35 0.16 0 0.03 0.19 0.01 0c0.03,-0.05 0.07,-0.09 0.11,-0.12 0.05,-0.03 0.1,-0.06 0.15,-0.07 0.06,-0.02 0.12,-0.03 0.18,-0.03zm-1.07 0.03l0 1.35 -0.21 0 0 -1.35 0.21 0zm-0.1 -0.51c0.03,0 0.06,0.01 0.08,0.04 0.03,0.02 0.04,0.05 0.04,0.1 0,0.04 -0.01,0.07 -0.04,0.1 -0.02,0.02 -0.05,0.03 -0.08,0.03 -0.04,0 -0.07,-0.01 -0.09,-0.03 -0.02,-0.03 -0.04,-0.06 -0.04,-0.1 0,-0.05 0.02,-0.08 0.04,-0.1 0.02,-0.03 0.05,-0.04 0.09,-0.04zm-1.17 1.86l-0.21 0 0 -1.8 1 0 0 0.18 -0.79 0 0 0.66 0.74 0 0 0.18 -0.74 0 0 0.78zm-2.37 -1.35l0.22 0 0.3 0.78c0.02,0.04 0.03,0.09 0.05,0.13 0.01,0.04 0.02,0.08 0.04,0.12 0.01,0.04 0.02,0.08 0.02,0.11l0.01 0c0.01,-0.04 0.03,-0.09 0.05,-0.16 0.02,-0.06 0.04,-0.13 0.07,-0.2l0.28 -0.78 0.22 0 -0.59 1.54c-0.03,0.08 -0.06,0.16 -0.1,0.22 -0.05,0.06 -0.1,0.11 -0.15,0.14 -0.06,0.03 -0.14,0.05 -0.22,0.05 -0.04,0 -0.07,0 -0.1,-0.01 -0.03,0 -0.06,-0.01 -0.08,-0.01l0 -0.17c0.02,0.01 0.04,0.01 0.07,0.02 0.02,0 0.05,0 0.08,0 0.05,0 0.09,-0.01 0.13,-0.03 0.04,-0.02 0.07,-0.05 0.1,-0.08 0.03,-0.04 0.05,-0.08 0.07,-0.13l0.07 -0.19 -0.54 -1.35zm-1.33 -0.03c0.16,0 0.28,0.04 0.35,0.11 0.08,0.07 0.12,0.19 0.12,0.35l0 0.92 -0.15 0 -0.04 -0.2 -0.01 0c-0.04,0.05 -0.08,0.09 -0.12,0.12 -0.04,0.03 -0.09,0.06 -0.14,0.08 -0.05,0.01 -0.12,0.02 -0.2,0.02 -0.08,0 -0.15,-0.01 -0.21,-0.04 -0.07,-0.03 -0.12,-0.08 -0.15,-0.13 -0.04,-0.06 -0.06,-0.14 -0.06,-0.23 0,-0.13 0.05,-0.23 0.16,-0.31 0.11,-0.07 0.27,-0.11 0.49,-0.11l0.23 -0.01 0 -0.09c0,-0.11 -0.02,-0.2 -0.08,-0.24 -0.04,-0.05 -0.12,-0.07 -0.21,-0.07 -0.07,0 -0.13,0.01 -0.2,0.03 -0.06,0.02 -0.12,0.04 -0.18,0.07l-0.06 -0.16c0.06,-0.03 0.13,-0.05 0.21,-0.08 0.08,-0.02 0.16,-0.03 0.25,-0.03zm0.27 0.71l-0.21 0.01c-0.17,0.01 -0.28,0.03 -0.35,0.08 -0.07,0.05 -0.11,0.12 -0.11,0.21 0,0.07 0.03,0.13 0.07,0.17 0.05,0.04 0.11,0.05 0.19,0.05 0.12,0 0.22,-0.03 0.29,-0.1 0.08,-0.06 0.12,-0.16 0.12,-0.3l0 -0.12zm-1.84 0.69c-0.17,0 -0.31,-0.06 -0.41,-0.17 -0.1,-0.12 -0.15,-0.29 -0.15,-0.52 0,-0.24 0.05,-0.41 0.16,-0.53 0.1,-0.12 0.23,-0.18 0.4,-0.18 0.07,0 0.14,0.01 0.19,0.03 0.05,0.02 0.1,0.04 0.14,0.08 0.04,0.03 0.07,0.06 0.09,0.1l0.02 0c0,-0.02 -0.01,-0.06 -0.01,-0.1 0,-0.05 -0.01,-0.08 -0.01,-0.11l0 -0.54 0.21 0 0 1.92 -0.17 0 -0.03 -0.2 -0.01 0c-0.02,0.04 -0.05,0.08 -0.09,0.11 -0.04,0.04 -0.09,0.06 -0.14,0.08 -0.06,0.02 -0.12,0.03 -0.19,0.03zm0.03 -0.17c0.14,0 0.25,-0.04 0.31,-0.12 0.06,-0.09 0.09,-0.21 0.09,-0.37l0 -0.04c0,-0.17 -0.03,-0.3 -0.09,-0.39 -0.06,-0.09 -0.16,-0.14 -0.31,-0.14 -0.12,0 -0.22,0.05 -0.28,0.15 -0.06,0.09 -0.09,0.22 -0.09,0.39 0,0.17 0.03,0.29 0.09,0.39 0.06,0.09 0.15,0.13 0.28,0.13zm-1.42 -1.23c0.16,0 0.28,0.04 0.36,0.12 0.09,0.08 0.13,0.2 0.13,0.38l0 0.88 -0.2 0 0 -0.87c0,-0.11 -0.03,-0.2 -0.08,-0.25 -0.05,-0.06 -0.13,-0.09 -0.24,-0.09 -0.14,0 -0.25,0.05 -0.31,0.13 -0.06,0.09 -0.09,0.21 -0.09,0.37l0 0.71 -0.21 0 0 -1.35 0.17 0 0.03 0.19 0.01 0c0.03,-0.05 0.07,-0.09 0.11,-0.12 0.04,-0.03 0.09,-0.06 0.15,-0.07 0.05,-0.02 0.11,-0.03 0.17,-0.03zm-1.53 0c0.11,0 0.21,0.03 0.29,0.08 0.09,0.05 0.15,0.12 0.19,0.21 0.05,0.09 0.07,0.2 0.07,0.32l0 0.13 -0.93 0c0,0.16 0.04,0.28 0.11,0.36 0.08,0.08 0.19,0.13 0.33,0.13 0.08,0 0.16,-0.01 0.22,-0.03 0.07,-0.01 0.14,-0.04 0.21,-0.07l0 0.18c-0.07,0.03 -0.14,0.05 -0.2,0.07 -0.07,0.01 -0.15,0.02 -0.24,0.02 -0.13,0 -0.24,-0.03 -0.34,-0.08 -0.1,-0.05 -0.17,-0.13 -0.23,-0.23 -0.05,-0.11 -0.07,-0.23 -0.07,-0.38 0,-0.14 0.02,-0.27 0.07,-0.38 0.05,-0.1 0.12,-0.18 0.21,-0.24 0.08,-0.06 0.19,-0.09 0.31,-0.09zm0 0.17c-0.11,0 -0.2,0.03 -0.26,0.11 -0.07,0.07 -0.11,0.17 -0.12,0.3l0.71 0c0,-0.08 -0.01,-0.16 -0.03,-0.22 -0.03,-0.06 -0.06,-0.11 -0.11,-0.14 -0.05,-0.03 -0.12,-0.05 -0.19,-0.05zm-0.95 -0.14l0 1.35 -0.21 0 0 -1.35 0.21 0zm-0.1 -0.51c0.03,0 0.06,0.01 0.08,0.04 0.03,0.02 0.04,0.05 0.04,0.1 0,0.04 -0.01,0.07 -0.04,0.1 -0.02,0.02 -0.05,0.03 -0.08,0.03 -0.04,0 -0.07,-0.01 -0.09,-0.03 -0.02,-0.03 -0.03,-0.06 -0.03,-0.1 0,-0.05 0.01,-0.08 0.03,-0.1 0.02,-0.03 0.05,-0.04 0.09,-0.04zm-0.77 1.88c-0.12,0 -0.23,-0.02 -0.32,-0.08 -0.1,-0.05 -0.17,-0.12 -0.22,-0.22 -0.05,-0.11 -0.08,-0.24 -0.08,-0.39 0,-0.17 0.03,-0.3 0.08,-0.4 0.06,-0.11 0.13,-0.18 0.23,-0.23 0.1,-0.05 0.21,-0.08 0.33,-0.08 0.06,0 0.13,0.01 0.19,0.02 0.06,0.02 0.12,0.03 0.16,0.05l-0.07 0.17c-0.04,-0.01 -0.08,-0.03 -0.14,-0.04 -0.05,-0.01 -0.1,-0.02 -0.15,-0.02 -0.09,0 -0.17,0.02 -0.23,0.06 -0.06,0.04 -0.11,0.1 -0.14,0.18 -0.03,0.08 -0.05,0.17 -0.05,0.29 0,0.11 0.02,0.2 0.05,0.28 0.03,0.07 0.07,0.13 0.13,0.17 0.06,0.04 0.14,0.06 0.23,0.06 0.07,0 0.13,0 0.19,-0.02 0.06,-0.01 0.11,-0.03 0.16,-0.05l0 0.18c-0.05,0.02 -0.1,0.04 -0.16,0.05 -0.05,0.01 -0.12,0.02 -0.19,0.02zm-1.44 -1.4c0.16,0 0.28,0.04 0.36,0.11 0.08,0.07 0.12,0.19 0.12,0.35l0 0.92 -0.15 0 -0.04 -0.2 -0.01 0c-0.04,0.05 -0.08,0.09 -0.12,0.12 -0.04,0.03 -0.09,0.06 -0.14,0.08 -0.06,0.01 -0.12,0.02 -0.2,0.02 -0.08,0 -0.15,-0.01 -0.22,-0.04 -0.06,-0.03 -0.11,-0.08 -0.15,-0.13 -0.03,-0.06 -0.05,-0.14 -0.05,-0.23 0,-0.13 0.05,-0.23 0.16,-0.31 0.1,-0.07 0.27,-0.11 0.48,-0.11l0.24 -0.01 0 -0.09c0,-0.11 -0.03,-0.2 -0.08,-0.24 -0.05,-0.05 -0.12,-0.07 -0.21,-0.07 -0.07,0 -0.14,0.01 -0.2,0.03 -0.06,0.02 -0.13,0.04 -0.18,0.07l-0.07 -0.16c0.06,-0.03 0.13,-0.05 0.21,-0.08 0.08,-0.02 0.16,-0.03 0.25,-0.03zm0.27 0.71l-0.2 0.01c-0.17,0.01 -0.29,0.03 -0.36,0.08 -0.06,0.05 -0.1,0.12 -0.1,0.21 0,0.07 0.02,0.13 0.07,0.17 0.05,0.04 0.11,0.05 0.19,0.05 0.12,0 0.21,-0.03 0.29,-0.1 0.08,-0.06 0.11,-0.16 0.11,-0.3l0 -0.12zm-1.24 0.67l-0.21 0 0 -0.85 -0.94 0 0 0.85 -0.21 0 0 -1.8 0.21 0 0 0.76 0.94 0 0 -0.76 0.21 0 0 1.8zm-2.94 -1.38c0.11,0 0.21,0.03 0.3,0.08 0.08,0.05 0.14,0.12 0.18,0.21 0.05,0.09 0.07,0.2 0.07,0.32l0 0.13 -0.93 0c0,0.16 0.04,0.28 0.12,0.36 0.07,0.08 0.18,0.13 0.32,0.13 0.08,0 0.16,-0.01 0.22,-0.03 0.07,-0.01 0.14,-0.04 0.21,-0.07l0 0.18c-0.07,0.03 -0.14,0.05 -0.2,0.07 -0.07,0.01 -0.15,0.02 -0.24,0.02 -0.13,0 -0.24,-0.03 -0.34,-0.08 -0.1,-0.05 -0.17,-0.13 -0.22,-0.23 -0.06,-0.11 -0.08,-0.23 -0.08,-0.38 0,-0.14 0.02,-0.27 0.07,-0.38 0.05,-0.1 0.12,-0.18 0.21,-0.24 0.08,-0.06 0.19,-0.09 0.31,-0.09zm0 0.17c-0.11,0 -0.2,0.03 -0.26,0.11 -0.07,0.07 -0.11,0.17 -0.12,0.3l0.71 0c0,-0.08 -0.01,-0.16 -0.03,-0.22 -0.03,-0.06 -0.06,-0.11 -0.11,-0.14 -0.05,-0.03 -0.12,-0.05 -0.19,-0.05zm-1.58 1.23c-0.17,0 -0.31,-0.06 -0.41,-0.17 -0.09,-0.12 -0.15,-0.29 -0.15,-0.52 0,-0.24 0.06,-0.41 0.16,-0.53 0.1,-0.12 0.23,-0.18 0.4,-0.18 0.08,0 0.14,0.01 0.19,0.03 0.05,0.02 0.1,0.04 0.14,0.08 0.04,0.03 0.07,0.06 0.09,0.1l0.02 0c0,-0.02 -0.01,-0.06 -0.01,-0.1 0,-0.05 -0.01,-0.08 -0.01,-0.11l0 -0.54 0.21 0 0 1.92 -0.17 0 -0.03 -0.2 -0.01 0c-0.02,0.04 -0.05,0.08 -0.09,0.11 -0.04,0.04 -0.09,0.06 -0.14,0.08 -0.05,0.02 -0.12,0.03 -0.19,0.03zm0.03 -0.17c0.15,0 0.25,-0.04 0.31,-0.12 0.06,-0.09 0.09,-0.21 0.09,-0.37l0 -0.04c0,-0.17 -0.03,-0.3 -0.09,-0.39 -0.05,-0.09 -0.16,-0.14 -0.31,-0.14 -0.12,0 -0.22,0.05 -0.28,0.15 -0.06,0.09 -0.09,0.22 -0.09,0.39 0,0.17 0.03,0.29 0.09,0.39 0.06,0.09 0.16,0.13 0.28,0.13zm-1.52 -0.53c0,0.11 -0.01,0.21 -0.04,0.29 -0.03,0.09 -0.07,0.17 -0.13,0.23 -0.05,0.05 -0.11,0.1 -0.19,0.13 -0.08,0.03 -0.16,0.05 -0.26,0.05 -0.09,0 -0.17,-0.02 -0.25,-0.05 -0.07,-0.03 -0.14,-0.08 -0.19,-0.13 -0.06,-0.06 -0.1,-0.14 -0.13,-0.23 -0.03,-0.08 -0.05,-0.18 -0.05,-0.29 0,-0.15 0.03,-0.27 0.08,-0.38 0.05,-0.1 0.12,-0.18 0.22,-0.24 0.09,-0.05 0.2,-0.08 0.33,-0.08 0.12,0 0.23,0.03 0.32,0.08 0.09,0.06 0.16,0.14 0.22,0.24 0.05,0.11 0.07,0.23 0.07,0.38zm-1.02 0c0,0.11 0.01,0.2 0.04,0.28 0.03,0.08 0.07,0.14 0.13,0.18 0.06,0.05 0.14,0.07 0.23,0.07 0.1,0 0.17,-0.02 0.23,-0.07 0.07,-0.04 0.11,-0.1 0.14,-0.18 0.03,-0.08 0.04,-0.17 0.04,-0.28 0,-0.11 -0.01,-0.2 -0.04,-0.28 -0.03,-0.08 -0.07,-0.14 -0.13,-0.18 -0.07,-0.04 -0.14,-0.07 -0.24,-0.07 -0.14,0 -0.24,0.05 -0.31,0.14 -0.06,0.1 -0.09,0.22 -0.09,0.39zm-0.57 -0.67l0 1.35 -0.21 0 0 -1.35 0.21 0zm-0.1 -0.51c0.03,0 0.06,0.01 0.08,0.04 0.03,0.02 0.04,0.05 0.04,0.1 0,0.04 -0.01,0.07 -0.04,0.1 -0.02,0.02 -0.05,0.03 -0.08,0.03 -0.04,0 -0.07,-0.01 -0.09,-0.03 -0.02,-0.03 -0.03,-0.06 -0.03,-0.1 0,-0.05 0.01,-0.08 0.03,-0.1 0.02,-0.03 0.05,-0.04 0.09,-0.04zm-0.52 0.48c0.02,0 0.05,0 0.08,0.01 0.03,0 0.06,0 0.08,0.01l-0.03 0.19c-0.02,-0.01 -0.04,-0.01 -0.07,-0.02 -0.03,0 -0.05,0 -0.08,0 -0.05,0 -0.1,0.01 -0.15,0.03 -0.05,0.02 -0.09,0.05 -0.13,0.09 -0.03,0.05 -0.06,0.09 -0.08,0.15 -0.02,0.06 -0.03,0.12 -0.03,0.19l0 0.73 -0.21 0 0 -1.35 0.17 0 0.03 0.24 0 0c0.03,-0.05 0.07,-0.09 0.11,-0.13 0.04,-0.04 0.08,-0.08 0.13,-0.1 0.06,-0.03 0.11,-0.04 0.18,-0.04zm-1.51 0c0.11,0 0.21,0.03 0.29,0.08 0.09,0.05 0.15,0.12 0.19,0.21 0.05,0.09 0.07,0.2 0.07,0.32l0 0.13 -0.93 0c0,0.16 0.04,0.28 0.12,0.36 0.07,0.08 0.18,0.13 0.32,0.13 0.08,0 0.16,-0.01 0.22,-0.03 0.07,-0.01 0.14,-0.04 0.21,-0.07l0 0.18c-0.07,0.03 -0.14,0.05 -0.2,0.07 -0.07,0.01 -0.15,0.02 -0.24,0.02 -0.13,0 -0.24,-0.03 -0.34,-0.08 -0.1,-0.05 -0.17,-0.13 -0.23,-0.23 -0.05,-0.11 -0.07,-0.23 -0.07,-0.38 0,-0.14 0.02,-0.27 0.07,-0.38 0.05,-0.1 0.12,-0.18 0.21,-0.24 0.08,-0.06 0.19,-0.09 0.31,-0.09zm0 0.17c-0.11,0 -0.2,0.03 -0.26,0.11 -0.07,0.07 -0.11,0.17 -0.12,0.3l0.71 0c0,-0.08 -0.01,-0.16 -0.03,-0.22 -0.03,-0.06 -0.06,-0.11 -0.11,-0.14 -0.05,-0.03 -0.12,-0.05 -0.19,-0.05zm-0.98 1.06c0.03,0 0.07,0 0.1,-0.01 0.04,0 0.06,-0.01 0.09,-0.02l0 0.16c-0.03,0.01 -0.06,0.02 -0.1,0.03 -0.04,0.01 -0.09,0.01 -0.13,0.01 -0.07,0 -0.13,-0.01 -0.19,-0.04 -0.06,-0.02 -0.11,-0.07 -0.14,-0.13 -0.03,-0.05 -0.05,-0.14 -0.05,-0.24l0 -0.8 -0.19 0 0 -0.1 0.19 -0.08 0.08 -0.3 0.12 0 0 0.32 0.4 0 0 0.16 -0.4 0 0 0.79c0,0.08 0.02,0.15 0.06,0.19 0.04,0.04 0.09,0.06 0.16,0.06zm-0.77 -0.22c0,0.08 -0.02,0.15 -0.06,0.21 -0.04,0.06 -0.11,0.11 -0.19,0.14 -0.08,0.02 -0.17,0.04 -0.28,0.04 -0.1,0 -0.18,-0.01 -0.25,-0.02 -0.07,-0.02 -0.12,-0.04 -0.18,-0.07l0 -0.18c0.06,0.02 0.12,0.05 0.2,0.07 0.08,0.02 0.15,0.03 0.23,0.03 0.12,0 0.2,-0.02 0.26,-0.05 0.05,-0.04 0.08,-0.09 0.08,-0.16 0,-0.03 -0.02,-0.07 -0.04,-0.09 -0.02,-0.03 -0.05,-0.06 -0.1,-0.09 -0.05,-0.02 -0.12,-0.05 -0.2,-0.08 -0.09,-0.04 -0.17,-0.07 -0.23,-0.1 -0.06,-0.03 -0.11,-0.07 -0.14,-0.12 -0.04,-0.05 -0.05,-0.11 -0.05,-0.18 0,-0.12 0.04,-0.2 0.13,-0.27 0.1,-0.06 0.22,-0.09 0.37,-0.09 0.08,0 0.16,0.01 0.23,0.03 0.07,0.01 0.13,0.03 0.19,0.06l-0.06 0.16c-0.06,-0.02 -0.12,-0.04 -0.18,-0.06 -0.07,-0.01 -0.13,-0.02 -0.2,-0.02 -0.09,0 -0.16,0.01 -0.21,0.05 -0.05,0.03 -0.08,0.07 -0.08,0.12 0,0.05 0.01,0.08 0.04,0.11 0.02,0.02 0.06,0.05 0.11,0.07 0.05,0.03 0.12,0.06 0.2,0.09 0.09,0.03 0.16,0.06 0.22,0.09 0.06,0.04 0.11,0.08 0.14,0.12 0.04,0.05 0.05,0.11 0.05,0.19zm-1.3 -0.98l0 1.35 -0.2 0 0 -1.35 0.2 0zm-0.1 -0.51c0.03,0 0.06,0.01 0.09,0.04 0.02,0.02 0.03,0.05 0.03,0.1 0,0.04 -0.01,0.07 -0.03,0.1 -0.03,0.02 -0.06,0.03 -0.09,0.03 -0.03,0 -0.06,-0.01 -0.09,-0.03 -0.02,-0.03 -0.03,-0.06 -0.03,-0.1 0,-0.05 0.01,-0.08 0.03,-0.1 0.03,-0.03 0.06,-0.04 0.09,-0.04zm-1.01 0.48c0.16,0 0.28,0.04 0.36,0.12 0.08,0.08 0.13,0.2 0.13,0.38l0 0.88 -0.21 0 0 -0.87c0,-0.11 -0.02,-0.2 -0.07,-0.25 -0.05,-0.06 -0.13,-0.09 -0.24,-0.09 -0.15,0 -0.25,0.05 -0.31,0.13 -0.06,0.09 -0.09,0.21 -0.09,0.37l0 0.71 -0.21 0 0 -1.35 0.17 0 0.03 0.19 0.01 0c0.03,-0.05 0.06,-0.09 0.11,-0.12 0.04,-0.03 0.09,-0.06 0.15,-0.07 0.05,-0.02 0.11,-0.03 0.17,-0.03zm-1.07 0.03l0 1.35 -0.2 0 0 -1.35 0.2 0zm-0.1 -0.51c0.03,0 0.06,0.01 0.09,0.04 0.02,0.02 0.03,0.05 0.03,0.1 0,0.04 -0.01,0.07 -0.03,0.1 -0.03,0.02 -0.06,0.03 -0.09,0.03 -0.04,0 -0.07,-0.01 -0.09,-0.03 -0.02,-0.03 -0.03,-0.06 -0.03,-0.1 0,-0.05 0.01,-0.08 0.03,-0.1 0.02,-0.03 0.05,-0.04 0.09,-0.04zm-1.55 1.86l-0.6 -1.6 -0.01 0c0,0.04 0,0.08 0.01,0.13 0,0.04 0,0.1 0,0.15 0,0.06 0,0.12 0,0.18l0 1.14 -0.19 0 0 -1.8 0.31 0 0.57 1.49 0.01 0 0.58 -1.49 0.3 0 0 1.8 -0.2 0 0 -1.16c0,-0.05 0,-0.1 0,-0.16 0,-0.05 0,-0.1 0.01,-0.15 0,-0.05 0,-0.09 0,-0.12l-0.01 0 -0.61 1.59 -0.17 0zm-7.14 -3.37l52.16 0 0 0.5 -52.16 0 0 -0.5zm42.45 -1.56c0,0.05 -0.01,0.09 -0.02,0.13 -0.01,0.04 -0.03,0.07 -0.06,0.1 -0.02,0.03 -0.06,0.06 -0.09,0.07 -0.04,0.02 -0.08,0.03 -0.12,0.03 -0.05,0 -0.1,-0.01 -0.15,-0.04 -0.04,-0.03 -0.09,-0.06 -0.12,-0.1l-1.69 -1.99c0,0.14 0,0.28 0,0.44 0,0.16 0,0.32 0,0.48 0,0.15 0,0.31 0,0.47 0,0.16 0,0.3 0,0.44 0,0.04 -0.01,0.08 -0.03,0.12 -0.01,0.04 -0.03,0.07 -0.06,0.09 -0.02,0.03 -0.06,0.05 -0.09,0.07 -0.04,0.01 -0.08,0.02 -0.12,0.02 -0.04,0 -0.08,-0.01 -0.12,-0.02 -0.03,-0.02 -0.06,-0.04 -0.09,-0.07 -0.02,-0.02 -0.05,-0.05 -0.06,-0.09 -0.02,-0.04 -0.02,-0.08 -0.02,-0.12l0 -2.64c0,-0.19 0.08,-0.31 0.18,-0.31 0.04,-0.01 0.08,0 0.12,0 0.03,0.01 0.06,0.01 0.09,0.03 0.03,0.01 0.06,0.02 0.08,0.04 0.03,0.02 0.06,0.04 0.08,0.07l1.7 2 -0.01 -1.82c0,-0.25 0.11,-0.32 0.24,-0.32 0.05,0 0.1,0 0.15,0.01 0.04,0.01 0.08,0.03 0.11,0.05 0.03,0.02 0.06,0.05 0.08,0.09 0.01,0.04 0.02,0.09 0.02,0.15l0 2.62zm2.26 -2.02c-0.02,0 -0.05,0 -0.07,-0.01 -0.02,0 -0.04,0 -0.06,-0.01 -0.02,-0.01 -0.04,-0.02 -0.07,-0.04 -0.02,-0.01 -0.04,-0.03 -0.06,-0.06 -0.09,-0.08 -0.17,-0.15 -0.25,-0.19 -0.07,-0.05 -0.16,-0.07 -0.26,-0.07 -0.05,0 -0.1,0.01 -0.16,0.02 -0.05,0.02 -0.1,0.04 -0.14,0.07 -0.05,0.03 -0.08,0.06 -0.11,0.1 -0.03,0.05 -0.04,0.09 -0.04,0.15 0,0.06 0.02,0.11 0.07,0.16 0.04,0.05 0.1,0.1 0.18,0.14 0.07,0.04 0.16,0.09 0.26,0.13 0.09,0.04 0.19,0.09 0.29,0.13 0.1,0.05 0.2,0.1 0.29,0.16 0.1,0.05 0.19,0.11 0.26,0.18 0.08,0.07 0.14,0.15 0.18,0.24 0.05,0.09 0.07,0.19 0.07,0.31 0,0.15 -0.03,0.29 -0.1,0.4 -0.07,0.12 -0.16,0.22 -0.27,0.3 -0.11,0.08 -0.24,0.14 -0.38,0.18 -0.14,0.04 -0.28,0.07 -0.42,0.07 -0.17,0 -0.32,-0.02 -0.45,-0.06 -0.13,-0.05 -0.24,-0.1 -0.33,-0.16 -0.09,-0.07 -0.16,-0.14 -0.21,-0.22 -0.06,-0.08 -0.09,-0.16 -0.11,-0.24 -0.01,-0.04 0,-0.07 0.01,-0.11 0.01,-0.04 0.02,-0.07 0.04,-0.1 0.02,-0.03 0.05,-0.05 0.08,-0.07 0.04,-0.02 0.08,-0.03 0.12,-0.03 0.05,0 0.09,0.01 0.13,0.04 0.05,0.02 0.09,0.05 0.14,0.09 0.02,0.04 0.05,0.08 0.09,0.11 0.04,0.04 0.09,0.07 0.14,0.09 0.05,0.03 0.11,0.05 0.17,0.07 0.06,0.01 0.12,0.02 0.18,0.02 0.07,0 0.13,-0.01 0.19,-0.02 0.07,-0.02 0.12,-0.04 0.17,-0.07 0.06,-0.03 0.1,-0.07 0.13,-0.12 0.03,-0.04 0.05,-0.1 0.05,-0.16 0,-0.06 -0.02,-0.12 -0.07,-0.17 -0.04,-0.04 -0.1,-0.09 -0.17,-0.13 -0.07,-0.04 -0.16,-0.08 -0.25,-0.12 -0.09,-0.04 -0.19,-0.08 -0.28,-0.13 -0.1,-0.04 -0.2,-0.09 -0.29,-0.14 -0.09,-0.06 -0.17,-0.12 -0.24,-0.19 -0.08,-0.07 -0.13,-0.15 -0.18,-0.24 -0.04,-0.09 -0.07,-0.19 -0.07,-0.31 0,-0.14 0.03,-0.26 0.08,-0.36 0.06,-0.11 0.13,-0.21 0.23,-0.29 0.09,-0.07 0.2,-0.13 0.33,-0.17 0.13,-0.05 0.28,-0.07 0.43,-0.07 0.07,0 0.15,0.01 0.23,0.02 0.08,0.02 0.16,0.05 0.24,0.08 0.07,0.03 0.14,0.06 0.21,0.1 0.06,0.04 0.12,0.09 0.17,0.14 0.05,0.04 0.09,0.09 0.12,0.15 0.03,0.05 0.04,0.1 0.04,0.15 0,0.05 0,0.09 -0.02,0.13 -0.01,0.03 -0.03,0.05 -0.06,0.07 -0.02,0.02 -0.05,0.04 -0.09,0.04 -0.03,0.01 -0.07,0.02 -0.11,0.02zm0.75 0.72c0,-0.15 0.02,-0.29 0.06,-0.43 0.04,-0.14 0.1,-0.27 0.17,-0.39 0.07,-0.12 0.15,-0.23 0.25,-0.33 0.1,-0.1 0.21,-0.18 0.33,-0.25 0.12,-0.07 0.25,-0.13 0.39,-0.17 0.14,-0.04 0.28,-0.06 0.43,-0.06 0.15,0 0.3,0.02 0.43,0.06 0.14,0.04 0.27,0.1 0.39,0.17 0.12,0.07 0.23,0.15 0.33,0.25 0.1,0.1 0.19,0.21 0.26,0.33 0.07,0.12 0.12,0.25 0.16,0.39 0.04,0.14 0.06,0.28 0.06,0.43 0,0.15 -0.02,0.3 -0.06,0.43 -0.04,0.14 -0.09,0.27 -0.16,0.39 -0.07,0.12 -0.16,0.23 -0.26,0.33 -0.1,0.1 -0.21,0.19 -0.33,0.26 -0.12,0.07 -0.25,0.12 -0.39,0.16 -0.13,0.04 -0.28,0.06 -0.43,0.06 -0.22,0 -0.43,-0.04 -0.63,-0.13 -0.2,-0.08 -0.37,-0.2 -0.52,-0.35 -0.15,-0.15 -0.26,-0.32 -0.35,-0.52 -0.08,-0.19 -0.13,-0.4 -0.13,-0.63zm0.6 0.01c0,0.14 0.03,0.27 0.08,0.4 0.06,0.12 0.13,0.23 0.22,0.33 0.1,0.09 0.21,0.17 0.33,0.22 0.13,0.06 0.26,0.08 0.4,0.08 0.14,0 0.28,-0.02 0.4,-0.08 0.13,-0.05 0.24,-0.13 0.33,-0.22 0.09,-0.1 0.17,-0.21 0.22,-0.34 0.05,-0.12 0.08,-0.26 0.08,-0.4 0,-0.14 -0.03,-0.27 -0.08,-0.4 -0.05,-0.12 -0.13,-0.23 -0.22,-0.33 -0.09,-0.09 -0.2,-0.17 -0.33,-0.22 -0.12,-0.06 -0.26,-0.08 -0.4,-0.08 -0.14,0 -0.27,0.02 -0.4,0.08 -0.12,0.05 -0.23,0.13 -0.33,0.22 -0.09,0.1 -0.16,0.21 -0.22,0.34 -0.05,0.12 -0.08,0.25 -0.08,0.4zm4.97 -0.73c-0.02,0 -0.04,0 -0.06,-0.01 -0.03,0 -0.05,0 -0.07,-0.01 -0.02,-0.01 -0.04,-0.02 -0.06,-0.04 -0.02,-0.01 -0.05,-0.03 -0.07,-0.06 -0.09,-0.08 -0.17,-0.15 -0.25,-0.19 -0.07,-0.05 -0.16,-0.07 -0.26,-0.07 -0.05,0 -0.1,0.01 -0.16,0.02 -0.05,0.02 -0.1,0.04 -0.14,0.07 -0.04,0.03 -0.08,0.06 -0.11,0.1 -0.03,0.05 -0.04,0.09 -0.04,0.15 0,0.06 0.02,0.11 0.07,0.16 0.04,0.05 0.1,0.1 0.18,0.14 0.08,0.04 0.16,0.09 0.26,0.13 0.09,0.04 0.19,0.09 0.29,0.13 0.1,0.05 0.2,0.1 0.29,0.16 0.1,0.05 0.19,0.11 0.26,0.18 0.08,0.07 0.14,0.15 0.19,0.24 0.04,0.09 0.06,0.19 0.06,0.31 0,0.15 -0.03,0.29 -0.1,0.4 -0.07,0.12 -0.16,0.22 -0.27,0.3 -0.11,0.08 -0.24,0.14 -0.38,0.18 -0.14,0.04 -0.28,0.07 -0.42,0.07 -0.17,0 -0.32,-0.02 -0.45,-0.06 -0.13,-0.05 -0.24,-0.1 -0.33,-0.16 -0.09,-0.07 -0.16,-0.14 -0.21,-0.22 -0.06,-0.08 -0.09,-0.16 -0.11,-0.24 0,-0.04 0,-0.07 0.01,-0.11 0.01,-0.04 0.02,-0.07 0.04,-0.1 0.02,-0.03 0.05,-0.05 0.08,-0.07 0.04,-0.02 0.08,-0.03 0.12,-0.03 0.05,0 0.09,0.01 0.13,0.04 0.05,0.02 0.09,0.05 0.14,0.09 0.02,0.04 0.05,0.08 0.09,0.11 0.04,0.04 0.09,0.07 0.14,0.09 0.05,0.03 0.11,0.05 0.17,0.07 0.06,0.01 0.12,0.02 0.18,0.02 0.07,0 0.13,-0.01 0.19,-0.02 0.07,-0.02 0.12,-0.04 0.18,-0.07 0.05,-0.03 0.09,-0.07 0.12,-0.12 0.04,-0.04 0.05,-0.1 0.05,-0.16 0,-0.06 -0.02,-0.12 -0.07,-0.17 -0.04,-0.04 -0.1,-0.09 -0.17,-0.13 -0.07,-0.04 -0.15,-0.08 -0.25,-0.12 -0.09,-0.04 -0.18,-0.08 -0.28,-0.13 -0.1,-0.04 -0.19,-0.09 -0.29,-0.14 -0.09,-0.06 -0.17,-0.12 -0.24,-0.19 -0.08,-0.07 -0.13,-0.15 -0.18,-0.24 -0.04,-0.09 -0.07,-0.19 -0.07,-0.31 0,-0.14 0.03,-0.26 0.08,-0.36 0.06,-0.11 0.13,-0.21 0.23,-0.29 0.09,-0.07 0.2,-0.13 0.33,-0.17 0.13,-0.05 0.28,-0.07 0.43,-0.07 0.08,0 0.15,0.01 0.23,0.02 0.08,0.02 0.16,0.05 0.24,0.08 0.07,0.03 0.14,0.06 0.21,0.1 0.06,0.04 0.12,0.09 0.17,0.14 0.05,0.04 0.09,0.09 0.12,0.15 0.03,0.05 0.05,0.1 0.05,0.15 0,0.05 -0.01,0.09 -0.03,0.13 -0.01,0.03 -0.03,0.05 -0.06,0.07 -0.02,0.02 -0.05,0.04 -0.09,0.04 -0.03,0.01 -0.07,0.02 -0.11,0.02zm-29.32 -2.89c-0.03,0 -0.06,-0.01 -0.08,-0.03 -0.02,-0.02 -0.02,-0.04 -0.02,-0.07l0 -2.04c0,-0.03 0,-0.06 0.02,-0.07 0.02,-0.02 0.05,-0.03 0.08,-0.03l0.76 0c0.36,0 0.64,0.1 0.85,0.31 0.21,0.2 0.32,0.47 0.32,0.8 0,0.34 -0.11,0.62 -0.32,0.82 -0.21,0.21 -0.49,0.31 -0.85,0.31l-0.76 0zm-19.03 4.94c0,0.05 -0.01,0.09 -0.03,0.12 -0.02,0.04 -0.04,0.07 -0.07,0.1 -0.03,0.02 -0.06,0.04 -0.1,0.06 -0.04,0.01 -0.08,0.02 -0.12,0.02l-1.7 0c-0.11,0 -0.19,-0.03 -0.25,-0.1 -0.06,-0.06 -0.09,-0.14 -0.09,-0.25l0 -2.57c0,-0.17 0.03,-0.34 0.31,-0.34l1.73 0c0.07,0 0.13,0.02 0.17,0.05 0.05,0.03 0.08,0.06 0.1,0.1 0.02,0.04 0.04,0.09 0.04,0.14 0,0.05 -0.02,0.1 -0.04,0.14 -0.02,0.04 -0.05,0.08 -0.1,0.1 -0.04,0.03 -0.09,0.05 -0.16,0.05l-1.45 0 0 0.77 1.12 0c0.05,0 0.09,0.01 0.13,0.03 0.04,0.03 0.08,0.05 0.1,0.09 0.03,0.03 0.05,0.07 0.06,0.11 0,0.05 0,0.09 -0.02,0.14 -0.02,0.06 -0.05,0.11 -0.1,0.14 -0.04,0.03 -0.1,0.05 -0.16,0.05l-1.13 0 0 0.75 1.43 0c0.05,0 0.09,0.01 0.13,0.02 0.04,0.02 0.07,0.04 0.1,0.06 0.03,0.03 0.05,0.06 0.07,0.1 0.02,0.03 0.03,0.07 0.03,0.12zm12.18 -3.23c0.05,0.05 0.17,0.14 0.23,0.06 0.12,-0.19 0.28,-0.28 0.4,-0.43 0.1,-0.11 -0.15,-0.28 -0.26,-0.18 -0.08,0.08 -0.46,0.43 -0.37,0.55zm-10.06 1.18c-0.02,0 -0.04,0 -0.06,-0.01 -0.02,0 -0.04,0 -0.07,-0.01 -0.02,-0.01 -0.04,-0.02 -0.06,-0.04 -0.02,-0.01 -0.05,-0.03 -0.07,-0.06 -0.09,-0.08 -0.17,-0.15 -0.24,-0.19 -0.08,-0.05 -0.17,-0.07 -0.27,-0.07 -0.05,0 -0.1,0.01 -0.15,0.02 -0.06,0.02 -0.11,0.04 -0.15,0.07 -0.04,0.03 -0.08,0.06 -0.11,0.1 -0.02,0.05 -0.04,0.09 -0.04,0.15 0,0.06 0.02,0.11 0.07,0.16 0.05,0.05 0.11,0.1 0.18,0.14 0.08,0.05 0.17,0.09 0.26,0.13 0.1,0.04 0.19,0.09 0.3,0.13 0.09,0.05 0.19,0.1 0.29,0.16 0.09,0.05 0.18,0.11 0.26,0.18 0.07,0.07 0.13,0.15 0.18,0.24 0.04,0.09 0.07,0.19 0.07,0.31 0,0.15 -0.04,0.29 -0.11,0.4 -0.07,0.12 -0.16,0.22 -0.27,0.3 -0.11,0.08 -0.23,0.14 -0.37,0.18 -0.14,0.04 -0.28,0.07 -0.42,0.07 -0.18,0 -0.33,-0.02 -0.46,-0.06 -0.13,-0.05 -0.24,-0.1 -0.33,-0.16 -0.09,-0.07 -0.16,-0.14 -0.21,-0.22 -0.05,-0.08 -0.09,-0.16 -0.1,-0.24 -0.01,-0.04 -0.01,-0.07 0,-0.11 0.01,-0.04 0.03,-0.07 0.05,-0.1 0.02,-0.03 0.04,-0.05 0.08,-0.07 0.03,-0.02 0.07,-0.03 0.12,-0.03 0.04,0 0.08,0.01 0.13,0.04 0.04,0.02 0.08,0.05 0.13,0.09 0.02,0.04 0.06,0.08 0.1,0.11 0.04,0.04 0.08,0.07 0.13,0.09 0.06,0.03 0.11,0.05 0.17,0.07 0.06,0.01 0.12,0.02 0.19,0.02 0.06,0 0.12,-0.01 0.19,-0.02 0.06,-0.02 0.12,-0.04 0.17,-0.07 0.05,-0.03 0.09,-0.07 0.13,-0.12 0.03,-0.04 0.04,-0.1 0.04,-0.16 0,-0.06 -0.02,-0.12 -0.06,-0.17 -0.05,-0.04 -0.1,-0.09 -0.18,-0.13 -0.07,-0.04 -0.15,-0.08 -0.24,-0.12 -0.1,-0.04 -0.19,-0.08 -0.29,-0.13 -0.1,-0.04 -0.19,-0.09 -0.28,-0.14 -0.1,-0.06 -0.18,-0.12 -0.25,-0.19 -0.07,-0.07 -0.13,-0.15 -0.17,-0.24 -0.05,-0.09 -0.07,-0.19 -0.07,-0.31 0,-0.14 0.02,-0.26 0.08,-0.36 0.05,-0.11 0.12,-0.21 0.22,-0.29 0.1,-0.07 0.21,-0.13 0.34,-0.17 0.13,-0.05 0.27,-0.07 0.42,-0.07 0.08,0 0.16,0.01 0.24,0.02 0.08,0.02 0.15,0.05 0.23,0.08 0.08,0.03 0.15,0.06 0.21,0.1 0.07,0.04 0.13,0.09 0.18,0.14 0.05,0.04 0.09,0.09 0.12,0.15 0.02,0.05 0.04,0.1 0.04,0.15 0,0.05 -0.01,0.09 -0.02,0.13 -0.02,0.03 -0.04,0.05 -0.06,0.07 -0.03,0.02 -0.06,0.03 -0.09,0.04 -0.04,0.01 -0.08,0.02 -0.12,0.02zm3.32 -0.61c0,0.05 0,0.09 -0.02,0.12 -0.02,0.04 -0.04,0.07 -0.07,0.1 -0.02,0.03 -0.06,0.05 -0.09,0.06 -0.04,0.01 -0.08,0.02 -0.13,0.02l-0.74 0 -0.01 2.36c0,0.04 -0.01,0.08 -0.02,0.12 -0.02,0.04 -0.04,0.07 -0.06,0.09 -0.03,0.03 -0.06,0.05 -0.09,0.07 -0.04,0.01 -0.08,0.02 -0.12,0.02 -0.05,0 -0.08,-0.01 -0.12,-0.02 -0.04,-0.02 -0.07,-0.04 -0.09,-0.07 -0.03,-0.02 -0.05,-0.05 -0.06,-0.09 -0.02,-0.04 -0.02,-0.08 -0.02,-0.12l-0.01 -2.36 -0.75 0c-0.05,0 -0.09,-0.01 -0.13,-0.02 -0.03,-0.01 -0.06,-0.03 -0.09,-0.06 -0.03,-0.03 -0.05,-0.06 -0.07,-0.09 -0.01,-0.04 -0.02,-0.08 -0.02,-0.13 0,-0.04 0.01,-0.07 0.02,-0.11 0.02,-0.04 0.04,-0.07 0.07,-0.1 0.02,-0.02 0.06,-0.04 0.09,-0.06 0.04,-0.02 0.08,-0.03 0.13,-0.03l2.09 0c0.04,0 0.08,0.01 0.12,0.03 0.04,0.01 0.07,0.03 0.1,0.06 0.03,0.02 0.05,0.06 0.07,0.09 0.02,0.04 0.02,0.08 0.02,0.12zm1.22 -0.3c0.04,0.01 0.08,0.01 0.12,0.03 0.03,0.02 0.06,0.05 0.09,0.07 0.02,0.03 0.05,0.07 0.06,0.11 0.02,0.03 0.04,0.07 0.06,0.11l1.01 2.53c0.01,0.02 0.02,0.04 0.02,0.06 0,0.02 0.01,0.04 0.01,0.06 0,0.04 -0.01,0.09 -0.04,0.13 -0.02,0.04 -0.05,0.06 -0.09,0.09 -0.04,0.03 -0.07,0.05 -0.12,0.06 -0.05,0.01 -0.09,0.01 -0.14,0 -0.04,-0.01 -0.08,-0.04 -0.12,-0.07 -0.03,-0.03 -0.06,-0.07 -0.08,-0.12l-0.18 -0.46 -1.18 0 -0.19 0.46c-0.03,0.08 -0.07,0.13 -0.13,0.16 -0.05,0.04 -0.11,0.05 -0.18,0.05 -0.04,-0.01 -0.08,-0.02 -0.12,-0.04 -0.04,-0.02 -0.07,-0.04 -0.09,-0.08 -0.03,-0.03 -0.04,-0.07 -0.06,-0.11 0,-0.04 -0.01,-0.09 0.01,-0.14 0.01,-0.04 0.03,-0.08 0.04,-0.12 0.01,-0.04 0.03,-0.08 0.05,-0.12l0.94 -2.36c0.08,-0.2 0.13,-0.3 0.31,-0.3zm-0.45 2.12l0.92 0 -0.46 -1.18 -0.46 1.18zm2.7 1.14c-0.07,0 -0.14,-0.02 -0.19,-0.07 -0.05,-0.04 -0.08,-0.1 -0.1,-0.17 0,-0.01 0,-0.02 0,-0.03 0,-0.01 0,-0.02 0,-0.03l0 -2.64c0,-0.19 0.02,-0.32 0.31,-0.32l0.77 0c0.15,0 0.29,0.02 0.43,0.06 0.14,0.04 0.27,0.1 0.39,0.17 0.12,0.07 0.23,0.15 0.33,0.25 0.1,0.1 0.18,0.21 0.25,0.33 0.07,0.12 0.13,0.25 0.17,0.39 0.04,0.14 0.06,0.28 0.06,0.43 0,0.15 -0.02,0.3 -0.06,0.44 -0.04,0.13 -0.1,0.26 -0.17,0.38 -0.07,0.12 -0.16,0.23 -0.25,0.33 -0.1,0.1 -0.22,0.19 -0.33,0.26 -0.13,0.07 -0.26,0.12 -0.39,0.16 -0.14,0.04 -0.28,0.06 -0.43,0.06l-0.79 0zm1.82 -1.63c0,-0.15 -0.03,-0.29 -0.08,-0.42 -0.06,-0.13 -0.13,-0.24 -0.23,-0.34 -0.09,-0.09 -0.2,-0.17 -0.32,-0.22 -0.13,-0.05 -0.26,-0.08 -0.4,-0.08l-0.49 0 0 2.1 0.49 0c0.14,0 0.27,-0.03 0.4,-0.08 0.12,-0.06 0.23,-0.13 0.32,-0.22 0.1,-0.09 0.17,-0.2 0.23,-0.33 0.05,-0.13 0.08,-0.26 0.08,-0.41zm1.68 1.32c0,0.04 -0.01,0.08 -0.02,0.12 -0.01,0.03 -0.03,0.07 -0.06,0.1 -0.02,0.03 -0.06,0.05 -0.09,0.06 -0.04,0.02 -0.08,0.03 -0.13,0.03 -0.04,0 -0.09,-0.01 -0.12,-0.03 -0.04,-0.01 -0.07,-0.04 -0.1,-0.07 -0.02,-0.03 -0.04,-0.06 -0.06,-0.1 -0.01,-0.03 -0.02,-0.07 -0.02,-0.11l0 -2.63c0,-0.26 0.21,-0.3 0.35,-0.3 0.05,0 0.09,0.02 0.13,0.04 0.03,0.03 0.06,0.06 0.08,0.1 0.03,0.04 0.04,0.09 0.04,0.15l0 2.64zm2.47 -2.04c-0.02,0 -0.04,0 -0.06,-0.01 -0.02,0 -0.05,0 -0.07,-0.01 -0.02,-0.01 -0.04,-0.02 -0.06,-0.04 -0.02,-0.01 -0.05,-0.03 -0.07,-0.06 -0.09,-0.08 -0.17,-0.15 -0.24,-0.19 -0.08,-0.05 -0.17,-0.07 -0.27,-0.07 -0.05,0 -0.1,0.01 -0.16,0.02 -0.05,0.02 -0.1,0.04 -0.14,0.07 -0.04,0.03 -0.08,0.06 -0.11,0.1 -0.03,0.05 -0.04,0.09 -0.04,0.15 0,0.06 0.02,0.11 0.07,0.16 0.04,0.05 0.11,0.1 0.18,0.14 0.08,0.04 0.16,0.09 0.26,0.13 0.1,0.04 0.19,0.09 0.29,0.13 0.1,0.05 0.2,0.1 0.3,0.16 0.09,0.05 0.18,0.11 0.26,0.18 0.07,0.07 0.13,0.15 0.18,0.24 0.04,0.09 0.07,0.19 0.07,0.31 0,0.15 -0.04,0.29 -0.11,0.4 -0.07,0.12 -0.16,0.22 -0.27,0.3 -0.11,0.08 -0.24,0.14 -0.37,0.18 -0.14,0.04 -0.28,0.07 -0.43,0.07 -0.17,0 -0.32,-0.02 -0.45,-0.06 -0.13,-0.05 -0.24,-0.1 -0.33,-0.16 -0.09,-0.07 -0.16,-0.14 -0.21,-0.22 -0.05,-0.08 -0.09,-0.16 -0.11,-0.24 0,-0.04 0,-0.07 0.01,-0.11 0.01,-0.04 0.02,-0.07 0.04,-0.1 0.03,-0.03 0.05,-0.05 0.09,-0.07 0.03,-0.02 0.07,-0.03 0.11,-0.03 0.05,0 0.09,0.01 0.14,0.04 0.04,0.02 0.08,0.05 0.13,0.09 0.02,0.04 0.05,0.08 0.09,0.11 0.05,0.04 0.09,0.07 0.14,0.09 0.05,0.03 0.11,0.05 0.17,0.07 0.06,0.01 0.12,0.02 0.19,0.02 0.06,0 0.12,-0.01 0.19,-0.02 0.06,-0.02 0.12,-0.04 0.17,-0.07 0.05,-0.03 0.09,-0.07 0.12,-0.12 0.04,-0.04 0.05,-0.1 0.05,-0.16 0,-0.06 -0.02,-0.12 -0.06,-0.17 -0.05,-0.04 -0.11,-0.09 -0.18,-0.13 -0.07,-0.04 -0.15,-0.08 -0.25,-0.12 -0.09,-0.04 -0.18,-0.08 -0.28,-0.13 -0.1,-0.04 -0.19,-0.09 -0.29,-0.14 -0.09,-0.06 -0.17,-0.12 -0.24,-0.19 -0.07,-0.07 -0.13,-0.15 -0.18,-0.24 -0.04,-0.09 -0.06,-0.19 -0.06,-0.31 0,-0.14 0.02,-0.26 0.08,-0.36 0.05,-0.11 0.12,-0.21 0.22,-0.29 0.09,-0.07 0.21,-0.13 0.34,-0.17 0.13,-0.05 0.27,-0.07 0.42,-0.07 0.08,0 0.16,0.01 0.23,0.02 0.08,0.02 0.16,0.05 0.24,0.08 0.07,0.03 0.14,0.06 0.21,0.1 0.07,0.04 0.12,0.09 0.17,0.14 0.06,0.04 0.1,0.09 0.12,0.15 0.03,0.05 0.05,0.1 0.05,0.15 0,0.05 -0.01,0.09 -0.03,0.13 -0.01,0.03 -0.03,0.05 -0.06,0.07 -0.02,0.02 -0.05,0.04 -0.09,0.04 -0.03,0.01 -0.07,0.02 -0.11,0.02zm3.18 -0.61c0,0.05 -0.01,0.09 -0.02,0.12 -0.02,0.04 -0.04,0.07 -0.07,0.1 -0.02,0.03 -0.06,0.05 -0.1,0.06 -0.03,0.01 -0.08,0.02 -0.12,0.02l-0.74 0 -0.01 2.36c0,0.04 -0.01,0.08 -0.02,0.12 -0.02,0.04 -0.04,0.07 -0.06,0.09 -0.03,0.03 -0.06,0.05 -0.09,0.07 -0.04,0.01 -0.08,0.02 -0.12,0.02 -0.05,0 -0.09,-0.01 -0.12,-0.02 -0.04,-0.02 -0.07,-0.04 -0.09,-0.07 -0.03,-0.02 -0.05,-0.05 -0.06,-0.09 -0.02,-0.04 -0.03,-0.08 -0.03,-0.12l0 -2.36 -0.76 0c-0.04,0 -0.08,-0.01 -0.12,-0.02 -0.03,-0.01 -0.07,-0.03 -0.09,-0.06 -0.03,-0.03 -0.05,-0.06 -0.07,-0.09 -0.01,-0.04 -0.02,-0.08 -0.02,-0.13 0,-0.04 0.01,-0.07 0.02,-0.11 0.02,-0.04 0.04,-0.07 0.06,-0.1 0.03,-0.02 0.06,-0.04 0.1,-0.06 0.04,-0.02 0.08,-0.03 0.12,-0.03l2.1 0c0.04,0 0.08,0.01 0.12,0.03 0.04,0.01 0.07,0.03 0.1,0.06 0.03,0.02 0.05,0.06 0.07,0.09 0.01,0.04 0.02,0.08 0.02,0.12zm0.94 2.65c0,0.04 -0.01,0.08 -0.02,0.12 -0.02,0.03 -0.04,0.07 -0.06,0.1 -0.03,0.03 -0.06,0.05 -0.1,0.06 -0.03,0.02 -0.07,0.03 -0.12,0.03 -0.05,0 -0.09,-0.01 -0.12,-0.03 -0.04,-0.01 -0.07,-0.04 -0.1,-0.07 -0.03,-0.03 -0.04,-0.06 -0.06,-0.1 -0.01,-0.03 -0.02,-0.07 -0.02,-0.11l0 -2.63c0,-0.3 0.21,-0.31 0.34,-0.3 0.05,0 0.1,0.02 0.13,0.04 0.04,0.03 0.07,0.06 0.09,0.1 0.02,0.04 0.04,0.09 0.04,0.15l0 2.64zm2.77 -2.01c-0.1,-0.1 -0.21,-0.19 -0.33,-0.25 -0.12,-0.06 -0.26,-0.09 -0.41,-0.09 -0.15,0 -0.28,0.03 -0.41,0.08 -0.12,0.06 -0.23,0.13 -0.32,0.23 -0.1,0.09 -0.17,0.21 -0.22,0.33 -0.06,0.13 -0.09,0.26 -0.09,0.4 0,0.14 0.03,0.28 0.09,0.4 0.05,0.13 0.13,0.24 0.22,0.33 0.09,0.1 0.2,0.17 0.33,0.23 0.12,0.05 0.25,0.08 0.4,0.08 0.09,0 0.17,-0.01 0.25,-0.03 0.07,-0.02 0.14,-0.05 0.21,-0.09 0.06,-0.04 0.12,-0.08 0.18,-0.13 0.06,-0.05 0.12,-0.1 0.18,-0.15 0.03,-0.02 0.05,-0.03 0.08,-0.04 0.03,-0.01 0.06,-0.01 0.09,-0.01 0.03,0 0.06,0 0.09,0.01 0.03,0.01 0.06,0.02 0.08,0.04 0.04,0.03 0.07,0.06 0.09,0.1 0.02,0.03 0.1,0.08 0.1,0.12 0,0.04 -0.07,0.08 -0.09,0.12 -0.01,0.03 -0.04,0.07 -0.07,0.1 -0.08,0.1 -0.17,0.18 -0.25,0.25 -0.09,0.07 -0.18,0.12 -0.27,0.17 -0.1,0.04 -0.2,0.07 -0.31,0.09 -0.11,0.02 -0.23,0.04 -0.36,0.04 -0.23,0 -0.44,-0.05 -0.64,-0.13 -0.19,-0.09 -0.37,-0.2 -0.51,-0.35 -0.15,-0.15 -0.27,-0.32 -0.35,-0.52 -0.09,-0.2 -0.13,-0.41 -0.13,-0.63 0,-0.15 0.02,-0.3 0.06,-0.43 0.04,-0.14 0.09,-0.27 0.16,-0.39 0.07,-0.12 0.16,-0.23 0.26,-0.33 0.09,-0.1 0.2,-0.19 0.32,-0.26 0.13,-0.07 0.25,-0.12 0.39,-0.16 0.14,-0.04 0.28,-0.06 0.44,-0.06 0.11,0 0.22,0.01 0.33,0.03 0.1,0.01 0.2,0.04 0.29,0.08 0.1,0.04 0.19,0.09 0.27,0.16 0.09,0.06 0.18,0.14 0.26,0.23 0.06,0.06 0.08,0.14 0.09,0.22 0,0.04 -0.01,0.07 -0.02,0.11 -0.02,0.04 -0.04,0.07 -0.08,0.1 -0.02,0.02 -0.05,0.04 -0.08,0.06 -0.03,0.01 -0.06,0.02 -0.1,0.02 -0.03,0 -0.07,0 -0.1,-0.02 -0.04,-0.01 -0.08,-0.03 -0.12,-0.06zm2.2 -0.94c0.05,0.01 0.08,0.01 0.12,0.03 0.03,0.02 0.06,0.05 0.09,0.07 0.02,0.03 0.05,0.07 0.07,0.11 0.02,0.03 0.03,0.07 0.05,0.11l1.02 2.53c0,0.02 0.01,0.04 0.01,0.06 0.01,0.02 0.01,0.04 0.01,0.06 0,0.04 -0.01,0.09 -0.03,0.13 -0.02,0.04 -0.06,0.06 -0.09,0.09 -0.04,0.03 -0.08,0.05 -0.13,0.06 -0.04,0.01 -0.09,0.01 -0.13,0 -0.05,-0.01 -0.09,-0.04 -0.12,-0.07 -0.04,-0.03 -0.07,-0.07 -0.09,-0.12l-0.18 -0.46 -1.18 0 -0.19 0.46c-0.03,0.08 -0.07,0.13 -0.12,0.16 -0.06,0.04 -0.12,0.05 -0.18,0.05 -0.05,-0.01 -0.09,-0.02 -0.13,-0.04 -0.03,-0.02 -0.06,-0.04 -0.09,-0.08 -0.03,-0.03 -0.04,-0.07 -0.05,-0.11 -0.01,-0.04 -0.01,-0.09 0,-0.14 0.01,-0.04 0.03,-0.08 0.04,-0.12 0.02,-0.04 0.03,-0.08 0.05,-0.12l0.94 -2.36c0.08,-0.2 0.14,-0.3 0.31,-0.3zm-0.45 2.12l0.92 0 -0.46 -1.18 -0.46 1.18zm4.93 -0.3l0 1.14c0,0.04 -0.01,0.08 -0.02,0.12 -0.02,0.04 -0.04,0.07 -0.07,0.09 -0.02,0.03 -0.06,0.05 -0.09,0.07 -0.04,0.01 -0.08,0.02 -0.12,0.02 -0.04,0 -0.08,-0.01 -0.12,-0.02 -0.04,-0.02 -0.07,-0.04 -0.09,-0.07 -0.03,-0.02 -0.05,-0.05 -0.06,-0.09 -0.02,-0.04 -0.03,-0.08 -0.03,-0.12l0 -1.13 -1.09 -1.31c-0.03,-0.04 -0.05,-0.07 -0.06,-0.11 -0.02,-0.03 -0.02,-0.07 -0.02,-0.11 0,-0.04 0,-0.07 0.02,-0.11 0.01,-0.03 0.03,-0.07 0.06,-0.1 0.03,-0.03 0.07,-0.05 0.1,-0.06 0.04,-0.02 0.08,-0.03 0.12,-0.03 0.04,0 0.07,0.01 0.11,0.02 0.04,0.02 0.07,0.04 0.09,0.08l0.97 1.22 0.97 -1.22c0.02,-0.04 0.05,-0.06 0.09,-0.08 0.03,-0.01 0.07,-0.02 0.11,-0.02 0.04,0 0.08,0.01 0.11,0.03 0.04,0.01 0.08,0.03 0.11,0.06 0.02,0.03 0.05,0.06 0.06,0.1 0.02,0.04 0.02,0.07 0.02,0.11 0,0.04 0,0.08 -0.02,0.12 -0.01,0.03 -0.04,0.06 -0.06,0.1l-1.09 1.3zm4.64 -0.88c-0.1,-0.1 -0.21,-0.19 -0.33,-0.25 -0.12,-0.06 -0.26,-0.09 -0.42,-0.09 -0.14,0 -0.27,0.03 -0.4,0.08 -0.12,0.06 -0.23,0.13 -0.33,0.23 -0.09,0.09 -0.16,0.21 -0.21,0.33 -0.06,0.13 -0.09,0.26 -0.09,0.4 0,0.14 0.03,0.28 0.09,0.4 0.05,0.13 0.12,0.24 0.22,0.33 0.09,0.1 0.2,0.17 0.32,0.23 0.13,0.05 0.26,0.08 0.4,0.08 0.1,0 0.18,-0.01 0.25,-0.03 0.08,-0.02 0.15,-0.05 0.21,-0.09 0.07,-0.04 0.13,-0.08 0.19,-0.13 0.06,-0.05 0.12,-0.1 0.18,-0.15 0.03,-0.02 0.05,-0.03 0.08,-0.04 0.03,-0.01 0.06,-0.01 0.09,-0.01 0.03,0 0.06,0 0.09,0.01 0.03,0.01 0.06,0.02 0.08,0.04 0.04,0.03 0.07,0.06 0.09,0.1 0.02,0.03 0.03,0.08 0.03,0.12 0,0.04 0,0.08 -0.02,0.12 -0.01,0.03 -0.04,0.07 -0.07,0.1 -0.08,0.1 -0.17,0.18 -0.25,0.25 -0.09,0.07 -0.18,0.12 -0.27,0.17 -0.1,0.04 -0.2,0.07 -0.31,0.09 -0.11,0.02 -0.23,0.04 -0.37,0.04 -0.22,0 -0.43,-0.05 -0.63,-0.13 -0.2,-0.09 -0.37,-0.2 -0.52,-0.35 -0.14,-0.15 -0.26,-0.32 -0.35,-0.52 -0.08,-0.2 -0.12,-0.41 -0.12,-0.63 0,-0.15 0.02,-0.3 0.05,-0.43 0.04,-0.14 0.1,-0.27 0.17,-0.39 0.07,-0.12 0.15,-0.23 0.25,-0.33 0.1,-0.1 0.21,-0.19 0.33,-0.26 0.12,-0.07 0.25,-0.12 0.39,-0.16 0.14,-0.04 0.28,-0.06 0.43,-0.06 0.12,0 0.23,0.01 0.33,0.03 0.11,0.01 0.21,0.04 0.3,0.08 0.1,0.04 0.18,0.09 0.27,0.16 0.09,0.06 0.17,0.14 0.26,0.23 0.05,0.06 0.08,0.14 0.09,0.22 0,0.04 -0.01,0.07 -0.02,0.11 -0.02,0.04 -0.05,0.07 -0.08,0.1 -0.02,0.03 -0.05,0.04 -0.08,0.06 -0.03,0.01 -0.06,0.02 -0.1,0.02 -0.03,0 -0.07,0 -0.11,-0.02 -0.03,-0.01 -0.07,-0.03 -0.11,-0.06zm3.39 2.02c0,0.05 -0.01,0.09 -0.03,0.12 -0.01,0.04 -0.03,0.07 -0.06,0.1 -0.03,0.02 -0.07,0.04 -0.1,0.06 -0.04,0.01 -0.08,0.02 -0.13,0.02l-1.7 0c-0.11,0 -0.19,-0.03 -0.25,-0.1 -0.06,-0.06 -0.09,-0.14 -0.09,-0.25l0 -2.57c0,-0.17 0.07,-0.34 0.35,-0.34l1.7 0c0.07,0 0.12,0.02 0.17,0.05 0.04,0.03 0.07,0.06 0.1,0.1 0.02,0.04 0.03,0.09 0.03,0.14 0,0.05 -0.01,0.1 -0.03,0.14 -0.02,0.04 -0.06,0.08 -0.1,0.1 -0.05,0.03 -0.1,0.05 -0.17,0.05l-1.45 0 0 0.77 1.13 0c0.04,0 0.09,0.01 0.13,0.03 0.04,0.03 0.07,0.05 0.1,0.09 0.02,0.03 0.04,0.07 0.05,0.11 0.01,0.05 0,0.09 -0.01,0.14 -0.02,0.06 -0.06,0.11 -0.1,0.14 -0.05,0.03 -0.11,0.05 -0.17,0.05l-1.13 0 0 0.75 1.44 0c0.04,0 0.08,0.01 0.12,0.02 0.04,0.02 0.08,0.04 0.11,0.06 0.03,0.03 0.05,0.06 0.06,0.1 0.02,0.03 0.03,0.07 0.03,0.12zm10.97 -5.73c0.02,0.19 0.09,0.33 0.21,0.43 0.12,0.11 0.26,0.16 0.43,0.16 0.2,0 0.37,-0.06 0.53,-0.19 0.06,-0.05 0.1,-0.05 0.15,0l0.03 0.03c0.05,0.04 0.04,0.09 0,0.14 -0.1,0.09 -0.21,0.16 -0.34,0.2 -0.13,0.04 -0.25,0.06 -0.37,0.06 -0.16,0 -0.31,-0.03 -0.45,-0.1 -0.13,-0.07 -0.25,-0.18 -0.33,-0.31 -0.09,-0.14 -0.14,-0.3 -0.14,-0.49 0,-0.26 0.09,-0.47 0.25,-0.65 0.17,-0.17 0.37,-0.26 0.62,-0.26 0.25,0 0.44,0.08 0.6,0.24 0.09,0.08 0.15,0.17 0.2,0.28 0.04,0.11 0.06,0.23 0.06,0.35 0,0.04 -0.01,0.06 -0.03,0.08 -0.02,0.02 -0.05,0.03 -0.09,0.03l-1.33 0zm0.59 -0.74c-0.15,0 -0.28,0.05 -0.39,0.14 -0.11,0.09 -0.17,0.22 -0.19,0.38l1.16 0c-0.02,-0.15 -0.07,-0.26 -0.16,-0.35 -0.1,-0.11 -0.24,-0.17 -0.42,-0.17zm-1.24 -0.93c0.07,-0.02 0.11,0.01 0.11,0.09l0 2.27c0,0.03 -0.01,0.06 -0.03,0.07 -0.01,0.02 -0.04,0.03 -0.07,0.03l-0.08 0c-0.03,0 -0.05,-0.01 -0.06,-0.03 -0.02,-0.01 -0.03,-0.04 -0.03,-0.07l0 -0.13c-0.17,0.18 -0.37,0.27 -0.62,0.27 -0.13,0 -0.25,-0.02 -0.36,-0.07 -0.11,-0.05 -0.2,-0.11 -0.27,-0.19 -0.08,-0.08 -0.14,-0.18 -0.18,-0.29 -0.04,-0.11 -0.07,-0.23 -0.07,-0.35 0,-0.17 0.04,-0.32 0.11,-0.46 0.08,-0.14 0.18,-0.24 0.31,-0.33 0.14,-0.08 0.29,-0.12 0.46,-0.12 0.24,0 0.45,0.09 0.61,0.26l0 -0.83c0,-0.05 0.03,-0.09 0.09,-0.1l0.08 -0.02zm-0.76 2.26c0.09,0 0.17,-0.02 0.24,-0.05 0.08,-0.02 0.14,-0.06 0.2,-0.12 0.05,-0.05 0.1,-0.12 0.13,-0.21 0.03,-0.08 0.05,-0.18 0.05,-0.28 0,-0.11 -0.02,-0.21 -0.05,-0.29 -0.03,-0.09 -0.08,-0.16 -0.13,-0.21 -0.06,-0.05 -0.13,-0.09 -0.2,-0.12 -0.07,-0.03 -0.15,-0.04 -0.24,-0.04 -0.18,0 -0.33,0.06 -0.45,0.19 -0.11,0.13 -0.17,0.28 -0.17,0.47 0,0.18 0.06,0.34 0.17,0.47 0.12,0.12 0.27,0.19 0.45,0.19zm-2.16 0.2c-0.03,0 -0.05,-0.01 -0.07,-0.03 -0.02,-0.01 -0.02,-0.04 -0.02,-0.07l0 -2.24c0,-0.05 0.03,-0.08 0.09,-0.1l0.07 -0.02c0.07,-0.02 0.11,0.01 0.11,0.09l0 2.27c0,0.03 -0.01,0.06 -0.03,0.07 -0.01,0.02 -0.04,0.03 -0.06,0.03l-0.09 0zm-1.16 -1.77c0.23,0 0.4,0.06 0.53,0.19 0.13,0.12 0.19,0.29 0.19,0.52l0 0.96c0,0.07 -0.03,0.1 -0.09,0.1l-0.07 0c-0.03,0 -0.05,-0.01 -0.07,-0.03 -0.01,-0.01 -0.02,-0.04 -0.02,-0.07l0 -0.13c-0.08,0.09 -0.16,0.15 -0.27,0.2 -0.1,0.05 -0.21,0.07 -0.33,0.07 -0.2,0 -0.36,-0.05 -0.48,-0.15 -0.12,-0.1 -0.19,-0.24 -0.19,-0.41 0,-0.17 0.07,-0.31 0.21,-0.42 0.13,-0.1 0.31,-0.16 0.53,-0.16 0.17,0 0.34,0.04 0.52,0.13l0 -0.14c0,-0.13 -0.05,-0.23 -0.13,-0.3 -0.09,-0.08 -0.2,-0.12 -0.35,-0.12 -0.19,0 -0.36,0.06 -0.52,0.18 -0.05,0.04 -0.09,0.03 -0.13,-0.02l-0.02 -0.03c-0.02,-0.03 -0.03,-0.06 -0.02,-0.09 0.01,-0.02 0.02,-0.05 0.05,-0.06 0.11,-0.08 0.22,-0.14 0.33,-0.17 0.1,-0.03 0.21,-0.05 0.33,-0.05zm-0.09 1.58c0.09,0 0.18,-0.02 0.26,-0.05 0.08,-0.04 0.15,-0.09 0.21,-0.16 0.05,-0.07 0.08,-0.14 0.08,-0.23l0 -0.11c-0.18,-0.09 -0.35,-0.13 -0.51,-0.13 -0.15,0 -0.26,0.03 -0.34,0.1 -0.09,0.06 -0.13,0.15 -0.13,0.25 0,0.1 0.04,0.18 0.12,0.24 0.07,0.06 0.18,0.09 0.31,0.09zm-0.69 -1.55c0.06,0.01 0.08,0.05 0.06,0.12l-0.02 0.05c-0.01,0.06 -0.05,0.08 -0.12,0.07 -0.04,-0.02 -0.08,-0.02 -0.12,-0.02 -0.13,0 -0.23,0.05 -0.3,0.15 -0.07,0.1 -0.11,0.22 -0.11,0.38l0 0.89c0,0.03 -0.01,0.06 -0.02,0.07 -0.02,0.02 -0.04,0.03 -0.07,0.03l-0.09 0c-0.03,0 -0.05,-0.01 -0.07,-0.03 -0.01,-0.01 -0.02,-0.04 -0.02,-0.07l0 -1.54c0,-0.03 0.01,-0.06 0.02,-0.07 0.02,-0.02 0.04,-0.03 0.07,-0.03l0.07 0c0.03,0 0.05,0.01 0.07,0.03 0.02,0.01 0.03,0.04 0.03,0.07l0 0.14c0.1,-0.18 0.25,-0.27 0.44,-0.27 0.06,0 0.12,0.01 0.18,0.03zm-2.55 0.95c0.02,0.19 0.09,0.33 0.21,0.43 0.12,0.11 0.26,0.16 0.43,0.16 0.19,0 0.37,-0.06 0.53,-0.19 0.05,-0.05 0.1,-0.05 0.15,0l0.03 0.03c0.04,0.04 0.04,0.09 0,0.14 -0.1,0.09 -0.21,0.16 -0.34,0.2 -0.13,0.04 -0.25,0.06 -0.37,0.06 -0.16,0 -0.31,-0.03 -0.45,-0.1 -0.14,-0.07 -0.25,-0.18 -0.34,-0.31 -0.08,-0.14 -0.13,-0.3 -0.13,-0.49 0,-0.26 0.09,-0.47 0.25,-0.65 0.17,-0.17 0.37,-0.26 0.62,-0.26 0.24,0 0.44,0.08 0.6,0.24 0.09,0.08 0.15,0.17 0.19,0.28 0.05,0.11 0.07,0.23 0.07,0.35 0,0.04 -0.01,0.06 -0.03,0.08 -0.02,0.02 -0.05,0.03 -0.09,0.03l-1.33 0zm0.59 -0.74c-0.15,0 -0.29,0.05 -0.39,0.14 -0.11,0.09 -0.17,0.22 -0.19,0.38l1.16 0c-0.02,-0.15 -0.07,-0.26 -0.16,-0.35 -0.1,-0.11 -0.24,-0.17 -0.42,-0.17zm-1.78 -0.24c0.21,0 0.38,0.07 0.51,0.2 0.13,0.13 0.19,0.31 0.19,0.52l0 0.95c0,0.03 -0.01,0.06 -0.02,0.07 -0.02,0.02 -0.04,0.03 -0.07,0.03l-0.09 0c-0.03,0 -0.05,-0.01 -0.07,-0.03 -0.01,-0.01 -0.02,-0.04 -0.02,-0.07l0 -0.92c0,-0.16 -0.05,-0.28 -0.13,-0.37 -0.09,-0.09 -0.21,-0.13 -0.35,-0.13 -0.15,0 -0.27,0.04 -0.37,0.13 -0.09,0.09 -0.14,0.22 -0.14,0.37l0 0.92c0,0.03 -0.01,0.06 -0.02,0.07 -0.02,0.02 -0.04,0.03 -0.07,0.03l-0.09 0c-0.03,0 -0.05,-0.01 -0.07,-0.03 -0.01,-0.01 -0.02,-0.04 -0.02,-0.07l0 -1.54c0,-0.03 0.01,-0.06 0.02,-0.07 0.02,-0.02 0.04,-0.03 0.07,-0.03l0.07 0c0.03,0 0.05,0.01 0.07,0.03 0.01,0.01 0.02,0.04 0.02,0.07l0 0.14c0.13,-0.18 0.32,-0.27 0.58,-0.27zm-2.5 0.98c0.02,0.19 0.08,0.33 0.2,0.43 0.13,0.11 0.27,0.16 0.44,0.16 0.19,0 0.37,-0.06 0.53,-0.19 0.05,-0.05 0.1,-0.05 0.14,0l0.04 0.03c0.04,0.04 0.04,0.09 -0.01,0.14 -0.09,0.09 -0.2,0.16 -0.33,0.2 -0.13,0.04 -0.26,0.06 -0.37,0.06 -0.17,0 -0.31,-0.03 -0.45,-0.1 -0.14,-0.07 -0.25,-0.18 -0.34,-0.31 -0.08,-0.14 -0.13,-0.3 -0.13,-0.49 0,-0.26 0.08,-0.47 0.25,-0.65 0.16,-0.17 0.37,-0.26 0.62,-0.26 0.24,0 0.44,0.08 0.6,0.24 0.08,0.08 0.15,0.17 0.19,0.28 0.05,0.11 0.07,0.23 0.07,0.35 0,0.04 -0.01,0.06 -0.03,0.08 -0.03,0.02 -0.05,0.03 -0.09,0.03l-1.33 0zm0.59 -0.74c-0.16,0 -0.29,0.05 -0.39,0.14 -0.11,0.09 -0.17,0.22 -0.2,0.38l1.17 0c-0.02,-0.15 -0.07,-0.26 -0.16,-0.35 -0.1,-0.11 -0.24,-0.17 -0.42,-0.17zm-1.92 1.57c-0.16,0 -0.31,-0.03 -0.46,-0.09 -0.14,-0.06 -0.27,-0.14 -0.37,-0.24 -0.1,-0.11 -0.18,-0.23 -0.24,-0.37 -0.06,-0.15 -0.09,-0.3 -0.09,-0.46 0,-0.22 0.05,-0.41 0.15,-0.59 0.1,-0.18 0.24,-0.32 0.42,-0.42 0.18,-0.1 0.38,-0.15 0.6,-0.15 0.26,0 0.49,0.07 0.7,0.23 0.02,0.02 0.04,0.04 0.04,0.07 0,0.03 -0.02,0.05 -0.04,0.07l-0.03 0.04c-0.02,0.02 -0.05,0.03 -0.08,0.03 -0.03,0 -0.06,-0.01 -0.09,-0.03 -0.15,-0.1 -0.32,-0.16 -0.51,-0.16 -0.16,0 -0.31,0.04 -0.44,0.12 -0.14,0.08 -0.25,0.19 -0.32,0.33 -0.08,0.14 -0.12,0.29 -0.12,0.46 0,0.17 0.04,0.33 0.12,0.46 0.08,0.14 0.19,0.25 0.32,0.33 0.14,0.08 0.29,0.12 0.45,0.12 0.04,0 0.07,0 0.1,0 0.04,-0.01 0.07,-0.01 0.09,-0.01 0.03,-0.01 0.06,-0.02 0.08,-0.02 0.03,-0.01 0.05,-0.02 0.07,-0.02 0.02,-0.01 0.04,-0.02 0.06,-0.03 0.03,-0.01 0.05,-0.02 0.06,-0.02 0.01,-0.01 0.03,-0.02 0.05,-0.03 0.02,-0.01 0.03,-0.02 0.04,-0.03 0,0 0.02,-0.01 0.03,-0.02 0.02,-0.01 0.03,-0.02 0.03,-0.02l0 -0.57 -0.62 0c-0.07,0 -0.1,-0.04 -0.1,-0.1l0 -0.05c0,-0.06 0.03,-0.09 0.1,-0.09l0.79 0c0.03,0 0.06,0 0.07,0.02 0.02,0.02 0.03,0.05 0.03,0.08l0 0.74c0,0.04 -0.01,0.07 -0.02,0.09 -0.01,0.03 -0.04,0.05 -0.07,0.08 -0.23,0.17 -0.5,0.25 -0.8,0.25zm-2.93 -1.81c0.21,0 0.38,0.07 0.51,0.2 0.13,0.13 0.19,0.31 0.19,0.52l0 0.95c0,0.03 -0.01,0.06 -0.02,0.07 -0.02,0.02 -0.04,0.03 -0.07,0.03l-0.09 0c-0.03,0 -0.05,-0.01 -0.07,-0.03 -0.02,-0.01 -0.02,-0.04 -0.02,-0.07l0 -0.92c0,-0.16 -0.05,-0.28 -0.13,-0.37 -0.09,-0.09 -0.21,-0.13 -0.35,-0.13 -0.15,0 -0.27,0.04 -0.37,0.13 -0.09,0.09 -0.14,0.22 -0.14,0.37l0 0.92c0,0.03 -0.01,0.06 -0.02,0.07 -0.02,0.02 -0.04,0.03 -0.07,0.03l-0.09 0c-0.03,0 -0.05,-0.01 -0.07,-0.03 -0.01,-0.01 -0.02,-0.04 -0.02,-0.07l0 -1.54c0,-0.03 0.01,-0.06 0.02,-0.07 0.02,-0.02 0.04,-0.03 0.07,-0.03l0.07 0c0.03,0 0.05,0.01 0.07,0.03 0.01,0.01 0.02,0.04 0.02,0.07l0 0.14c0.13,-0.18 0.32,-0.27 0.58,-0.27zm-2.3 -0.24l-0.02 -0.03c-0.04,-0.04 -0.02,-0.08 0.04,-0.13l0.43 -0.34c0.07,-0.05 0.12,-0.06 0.16,0l0.03 0.05c0.03,0.04 0.04,0.06 0.03,0.09 -0.01,0.02 -0.03,0.04 -0.06,0.06l-0.48 0.29c-0.06,0.04 -0.1,0.05 -0.13,0.01zm0.79 1.93c-0.14,0.08 -0.3,0.12 -0.47,0.12 -0.17,0 -0.33,-0.04 -0.47,-0.12 -0.14,-0.08 -0.25,-0.18 -0.33,-0.32 -0.08,-0.14 -0.12,-0.29 -0.12,-0.46 0,-0.17 0.04,-0.32 0.12,-0.46 0.08,-0.14 0.19,-0.25 0.33,-0.33 0.14,-0.08 0.3,-0.12 0.47,-0.12 0.17,0 0.33,0.04 0.47,0.12 0.14,0.08 0.25,0.19 0.33,0.33 0.08,0.14 0.12,0.29 0.12,0.46 0,0.17 -0.04,0.32 -0.12,0.46 -0.08,0.14 -0.19,0.24 -0.33,0.32zm-0.93 -0.31c0.12,0.12 0.27,0.19 0.46,0.19 0.19,0 0.34,-0.07 0.46,-0.19 0.12,-0.13 0.18,-0.28 0.18,-0.47 0,-0.19 -0.06,-0.35 -0.18,-0.47 -0.12,-0.13 -0.27,-0.19 -0.46,-0.19 -0.19,0 -0.34,0.06 -0.46,0.19 -0.12,0.12 -0.18,0.28 -0.18,0.47 0,0.19 0.06,0.34 0.18,0.47zm-0.68 -1.73c-0.04,0.04 -0.09,0.06 -0.15,0.06 -0.06,0 -0.11,-0.02 -0.15,-0.06 -0.04,-0.04 -0.06,-0.09 -0.06,-0.15 0,-0.06 0.02,-0.11 0.06,-0.15 0.04,-0.05 0.09,-0.07 0.15,-0.07 0.06,0 0.11,0.02 0.15,0.07 0.04,0.04 0.06,0.09 0.06,0.15 0,0.06 -0.02,0.11 -0.06,0.15zm-0.2 2.12c-0.03,0 -0.05,-0.01 -0.06,-0.03 -0.02,-0.01 -0.03,-0.04 -0.03,-0.07l0 -1.54c0,-0.03 0.01,-0.06 0.03,-0.07 0.01,-0.02 0.03,-0.03 0.06,-0.03l0.09 0c0.03,0 0.05,0.01 0.07,0.03 0.02,0.01 0.03,0.04 0.03,0.07l0 1.54c0,0.03 -0.01,0.06 -0.03,0.07 -0.02,0.02 -0.04,0.03 -0.07,0.03l-0.09 0zm-0.99 0.04c-0.18,0 -0.34,-0.04 -0.48,-0.12 -0.14,-0.08 -0.25,-0.18 -0.33,-0.32 -0.07,-0.14 -0.11,-0.29 -0.11,-0.46 0,-0.17 0.04,-0.32 0.11,-0.46 0.08,-0.14 0.19,-0.25 0.33,-0.33 0.14,-0.08 0.3,-0.12 0.48,-0.12 0.26,0 0.49,0.09 0.66,0.26 0.05,0.05 0.05,0.1 0.01,0.14l-0.04 0.04c-0.02,0.02 -0.05,0.03 -0.07,0.03 -0.02,0.01 -0.04,-0.01 -0.08,-0.03 -0.04,-0.04 -0.09,-0.08 -0.14,-0.11 -0.04,-0.02 -0.09,-0.04 -0.13,-0.05 -0.04,-0.01 -0.08,-0.02 -0.11,-0.03 -0.03,0 -0.06,0 -0.1,0 -0.19,0 -0.35,0.06 -0.47,0.19 -0.12,0.12 -0.18,0.28 -0.18,0.47 0,0.19 0.06,0.35 0.18,0.47 0.12,0.12 0.28,0.19 0.47,0.19 0.04,0 0.07,-0.01 0.1,-0.01 0.03,0 0.07,-0.01 0.11,-0.02 0.04,-0.01 0.09,-0.03 0.13,-0.06 0.05,-0.03 0.1,-0.06 0.14,-0.1 0.05,-0.05 0.1,-0.05 0.15,0l0.04 0.03c0.04,0.04 0.04,0.09 -0.01,0.14 -0.17,0.18 -0.4,0.26 -0.66,0.26zm-1.7 0c-0.17,0 -0.33,-0.04 -0.47,-0.12 -0.14,-0.08 -0.25,-0.18 -0.33,-0.32 -0.07,-0.14 -0.11,-0.29 -0.11,-0.46 0,-0.17 0.04,-0.32 0.11,-0.46 0.08,-0.14 0.19,-0.25 0.33,-0.33 0.14,-0.08 0.3,-0.12 0.47,-0.12 0.27,0 0.5,0.09 0.67,0.26 0.05,0.05 0.05,0.1 0.01,0.14l-0.04 0.04c-0.02,0.02 -0.05,0.03 -0.07,0.03 -0.02,0.01 -0.04,-0.01 -0.08,-0.03 -0.04,-0.04 -0.09,-0.08 -0.14,-0.11 -0.04,-0.02 -0.09,-0.04 -0.13,-0.05 -0.04,-0.01 -0.08,-0.02 -0.11,-0.03 -0.03,0 -0.06,0 -0.1,0 -0.19,0 -0.35,0.06 -0.47,0.19 -0.12,0.12 -0.18,0.28 -0.18,0.47 0,0.19 0.06,0.35 0.18,0.47 0.12,0.12 0.27,0.19 0.47,0.19 0.04,0 0.07,-0.01 0.1,-0.01 0.03,0 0.07,-0.01 0.11,-0.02 0.04,-0.01 0.09,-0.03 0.13,-0.06 0.05,-0.03 0.1,-0.06 0.14,-0.1 0.05,-0.05 0.1,-0.05 0.15,0l0.04 0.03c0.04,0.04 0.04,0.09 -0.01,0.14 -0.17,0.18 -0.4,0.26 -0.67,0.26zm-2.46 -0.83c0.01,0.19 0.08,0.33 0.2,0.43 0.13,0.11 0.27,0.16 0.43,0.16 0.2,0 0.38,-0.06 0.53,-0.19 0.06,-0.05 0.11,-0.05 0.15,0l0.04 0.03c0.04,0.04 0.04,0.09 -0.01,0.14 -0.09,0.09 -0.21,0.16 -0.33,0.2 -0.13,0.04 -0.26,0.06 -0.38,0.06 -0.16,0 -0.31,-0.03 -0.44,-0.1 -0.14,-0.07 -0.25,-0.18 -0.34,-0.31 -0.09,-0.14 -0.13,-0.3 -0.13,-0.49 0,-0.26 0.08,-0.47 0.25,-0.65 0.16,-0.17 0.37,-0.26 0.62,-0.26 0.24,0 0.44,0.08 0.6,0.24 0.08,0.08 0.15,0.17 0.19,0.28 0.05,0.11 0.07,0.23 0.07,0.35 0,0.04 -0.01,0.06 -0.03,0.08 -0.03,0.02 -0.06,0.03 -0.09,0.03l-1.33 0zm0.59 -0.74c-0.16,0 -0.29,0.05 -0.39,0.14 -0.11,0.09 -0.18,0.22 -0.2,0.38l1.17 0c-0.02,-0.15 -0.08,-0.26 -0.16,-0.35 -0.1,-0.11 -0.24,-0.17 -0.42,-0.17zm-0.83 -0.21c0.06,0.01 0.08,0.05 0.06,0.12l-0.02 0.05c-0.01,0.06 -0.05,0.08 -0.12,0.07 -0.04,-0.02 -0.08,-0.02 -0.12,-0.02 -0.13,0 -0.23,0.05 -0.3,0.15 -0.07,0.1 -0.11,0.22 -0.11,0.38l0 0.89c0,0.03 -0.01,0.06 -0.02,0.07 -0.02,0.02 -0.04,0.03 -0.07,0.03l-0.09 0c-0.03,0 -0.05,-0.01 -0.07,-0.03 -0.01,-0.01 -0.02,-0.04 -0.02,-0.07l0 -1.54c0,-0.03 0.01,-0.06 0.02,-0.07 0.02,-0.02 0.04,-0.03 0.07,-0.03l0.07 0c0.03,0 0.05,0.01 0.07,0.03 0.02,0.01 0.02,0.04 0.02,0.07l0 0.14c0.1,-0.18 0.25,-0.27 0.45,-0.27 0.06,0 0.12,0.01 0.18,0.03zm-1.23 -0.38c-0.04,0.04 -0.09,0.06 -0.15,0.06 -0.06,0 -0.11,-0.02 -0.15,-0.06 -0.04,-0.04 -0.06,-0.09 -0.06,-0.15 0,-0.06 0.02,-0.11 0.06,-0.15 0.04,-0.05 0.1,-0.07 0.15,-0.07 0.06,0 0.11,0.02 0.15,0.07 0.05,0.04 0.07,0.09 0.07,0.15 0,0.06 -0.02,0.11 -0.07,0.15zm-0.19 2.12c-0.03,0 -0.05,-0.01 -0.07,-0.03 -0.02,-0.01 -0.03,-0.04 -0.03,-0.07l0 -1.54c0,-0.03 0.01,-0.06 0.03,-0.07 0.02,-0.02 0.04,-0.03 0.07,-0.03l0.08 0c0.03,0 0.06,0.01 0.07,0.03 0.02,0.01 0.03,0.04 0.03,0.07l0 1.54c0,0.03 -0.01,0.06 -0.03,0.07 -0.01,0.02 -0.04,0.03 -0.07,0.03l-0.08 0zm-2.11 -0.24l0.59 0c0.27,0 0.48,-0.08 0.65,-0.25 0.16,-0.16 0.24,-0.37 0.24,-0.63 0,-0.27 -0.08,-0.48 -0.24,-0.64 -0.17,-0.16 -0.38,-0.24 -0.65,-0.24l-0.59 0 0 1.76z"/>
 </g>
</svg>
